<?xml version="1.0" encoding="utf-8"?>
<!-- Generator: Adobe Illustrator 27.5.0, SVG Export Plug-In . SVG Version: 6.00 Build 0)  -->
<svg version="1.1" xmlns="http://www.w3.org/2000/svg" xmlns:xlink="http://www.w3.org/1999/xlink" x="0px" y="0px"
	 viewBox="0 0 500 500" style="enable-background:new 0 0 500 500;" xml:space="preserve">
<g id="BACKGROUND">
	<rect style="fill:#8FCCCF;" width="500" height="500"/>
	<g style="opacity:0.2;">
		<path style="fill:#FFFFFF;" d="M299.636,53.024H132.299c-8.765,0-15.937-7.172-15.937-15.937l0,0
			c0-8.765,7.172-15.937,15.937-15.937h167.337c8.765,0,15.937,7.172,15.937,15.937l0,0
			C315.573,45.853,308.401,53.024,299.636,53.024z"/>
		<path style="fill:#FFFFFF;" d="M458.041,212.393h-94.004c-8.765,0-15.937-7.172-15.937-15.937l0,0
			c0-8.765,7.172-15.937,15.937-15.937h94.004c8.765,0,15.937,7.172,15.937,15.937l0,0
			C473.978,205.221,466.807,212.393,458.041,212.393z"/>
		<path style="fill:#FFFFFF;" d="M468.158,148.645H366.185c-8.765,0-15.937-7.172-15.937-15.937v0
			c0-8.765,7.172-15.937,15.937-15.937h101.973c8.765,0,15.937,7.172,15.937,15.937v0
			C484.095,141.474,476.923,148.645,468.158,148.645z"/>
		<path style="fill:#FFFFFF;" d="M278.387,244.267H111.049c-8.765,0-15.937-7.172-15.937-15.937l0,0
			c0-8.765,7.172-15.937,15.937-15.937h167.337c8.765,0,15.937,7.172,15.937,15.937l0,0
			C294.324,237.095,287.152,244.267,278.387,244.267z"/>
		<path style="fill:#FFFFFF;" d="M307.604,116.772H111.049c-8.765,0-15.937-7.172-15.937-15.937v0
			c0-8.765,7.172-15.937,15.937-15.937h196.555c8.765,0,15.937,7.172,15.937,15.937v0C323.541,109.6,316.37,116.772,307.604,116.772
			z"/>
		<path style="fill:#FFFFFF;" d="M334.407,180.519H97.527c-8.765,0-15.937-7.172-15.937-15.937l0,0
			c0-8.765,7.172-15.937,15.937-15.937h236.88c8.765,0,15.937,7.172,15.937,15.937l0,0
			C350.344,173.348,343.173,180.519,334.407,180.519z"/>
		<path style="fill:#FFFFFF;" d="M344.991,84.898h-9.761c-8.765,0-15.937-7.172-15.937-15.937l0,0
			c0-8.765,7.172-15.937,15.937-15.937h9.761c8.765,0,15.937,7.172,15.937,15.937l0,0C360.928,77.726,353.756,84.898,344.991,84.898
			z"/>
		<path style="fill:#FFFFFF;" d="M331.612,244.267h-9.761c-8.765,0-15.937-7.172-15.937-15.937l0,0
			c0-8.765,7.172-15.937,15.937-15.937h9.761c8.765,0,15.937,7.172,15.937,15.937l0,0
			C347.549,237.095,340.377,244.267,331.612,244.267z"/>
		<path style="fill:#FFFFFF;" d="M73.965,148.645h-34.39c-8.765,0-15.937-7.172-15.937-15.937v0c0-8.765,7.172-15.937,15.937-15.937
			h34.39c8.765,0,15.937,7.172,15.937,15.937v0C89.902,141.474,82.731,148.645,73.965,148.645z"/>
		<path style="fill:#FFFFFF;" d="M148.235,84.898h138.361c-8.765,0-15.937-7.172-15.937-15.937l0,0
			c0-8.765,7.172-15.937,15.937-15.937H148.235c8.765,0,15.937,7.172,15.937,15.937l0,0
			C164.172,77.726,157.001,84.898,148.235,84.898z"/>
		<path style="fill:#FFFFFF;" d="M114.551,212.393h138.361c-8.765,0-15.937-7.172-15.937-15.937l0,0
			c0-8.765,7.171-15.937,15.937-15.937H114.551c8.765,0,15.937,7.172,15.937,15.937l0,0
			C130.488,205.221,123.316,212.393,114.551,212.393z"/>
		<path style="fill:#FFFFFF;" d="M112.981,148.645h192.933c-8.765,0-15.937-7.172-15.937-15.937v0
			c0-8.765,7.172-15.937,15.937-15.937H112.981c8.765,0,15.937,7.172,15.937,15.937v0
			C128.918,141.474,121.746,148.645,112.981,148.645z"/>
		<path style="fill:#FFFFFF;" d="M372.964,180.519h80.446c-8.765,0-15.937-7.172-15.937-15.937l0,0
			c0-8.765,7.172-15.937,15.937-15.937h-80.446c8.765,0,15.937,7.172,15.937,15.937l0,0
			C388.901,173.348,381.73,180.519,372.964,180.519z"/>
		<circle style="fill:#FFFFFF;" cx="386.081" cy="68.961" r="15.937"/>
		<circle style="fill:#FFFFFF;" cx="72.173" cy="228.33" r="15.937"/>
		<circle style="fill:#FFFFFF;" cx="88.11" cy="37.087" r="15.937"/>
	</g>
	<g style="opacity:0.2;">
		<path style="fill:#FFFFFF;" d="M205.65,439.099h191.651c10.039,0,18.252,8.214,18.252,18.253l0,0
			c0,10.039-8.214,18.252-18.252,18.252H205.65c-10.039,0-18.252-8.214-18.252-18.252l0,0
			C187.398,447.312,195.611,439.099,205.65,439.099z"/>
		<path style="fill:#FFFFFF;" d="M229.987,220.069h191.651c10.039,0,18.253,8.214,18.253,18.252v0
			c0,10.039-8.214,18.252-18.253,18.252H229.987c-10.039,0-18.253-8.214-18.253-18.252v0
			C211.734,228.283,219.948,220.069,229.987,220.069z"/>
		<path style="fill:#FFFFFF;" d="M196.524,366.089h225.114c10.039,0,18.253,8.214,18.253,18.253l0,0
			c0,10.039-8.214,18.253-18.253,18.253H196.524c-10.039,0-18.252-8.214-18.252-18.253l0,0
			C178.272,374.302,186.485,366.089,196.524,366.089z"/>
		<path style="fill:#FFFFFF;" d="M187.398,293.079h249.727c10.039,0,18.252,8.214,18.252,18.252v0
			c0,10.039-8.214,18.252-18.252,18.252H187.398c-10.039,0-18.252-8.214-18.252-18.252v0
			C169.145,301.292,177.359,293.079,187.398,293.079z"/>
		<path style="fill:#FFFFFF;" d="M46.376,402.594h111.488c10.039,0,18.253,8.214,18.253,18.252v0
			c0,10.039-8.214,18.252-18.253,18.252H46.376c-10.039,0-18.252-8.214-18.252-18.252v0
			C28.124,410.807,36.337,402.594,46.376,402.594z"/>
		<path style="fill:#FFFFFF;" d="M169.028,220.069h11.179c10.039,0,18.252,8.214,18.252,18.252v0
			c0,10.039-8.214,18.252-18.252,18.252h-11.179c-10.039,0-18.252-8.214-18.252-18.252v0
			C150.776,228.283,158.99,220.069,169.028,220.069z"/>
		<path style="fill:#FFFFFF;" d="M48.76,329.584h98.814c10.039,0,18.253,8.214,18.253,18.253l0,0
			c0,10.039-8.214,18.252-18.253,18.252H48.76c-10.039,0-18.253-8.214-18.253-18.252l0,0
			C30.507,337.797,38.721,329.584,48.76,329.584z"/>
		<path style="fill:#FFFFFF;" d="M379.049,402.594H220.584c10.039,0,18.253,8.214,18.253,18.252v0
			c0,10.039-8.214,18.252-18.253,18.252h158.465c-10.039,0-18.253-8.214-18.253-18.252v0
			C360.796,410.807,369.01,402.594,379.049,402.594z"/>
		<path style="fill:#FFFFFF;" d="M417.628,256.574H259.163c10.039,0,18.253,8.214,18.253,18.253l0,0
			c0,10.039-8.214,18.253-18.253,18.253h158.465c-10.039,0-18.253-8.214-18.253-18.253l0,0
			C399.375,264.787,407.589,256.574,417.628,256.574z"/>
		<path style="fill:#FFFFFF;" d="M419.425,329.584H198.46c10.039,0,18.253,8.214,18.253,18.253l0,0
			c0,10.039-8.214,18.252-18.253,18.252h220.965c-10.039,0-18.253-8.214-18.253-18.252l0,0
			C401.173,337.797,409.386,329.584,419.425,329.584z"/>
		<path style="fill:#FFFFFF;" d="M143.149,366.089H53.396c10.039,0,18.253,8.214,18.253,18.253l0,0
			c0,10.039-8.214,18.253-18.253,18.253h89.753c-10.039,0-18.253-8.214-18.253-18.253l0,0
			C124.897,374.302,133.11,366.089,143.149,366.089z"/>
		
			<ellipse transform="matrix(0.228 -0.9737 0.9737 0.228 127.8457 637.879)" style="fill:#FFFFFF;" cx="466.163" cy="238.321" rx="18.252" ry="18.252"/>
		
			<ellipse transform="matrix(0.9221 -0.387 0.387 0.9221 -142.0877 208.9644)" style="fill:#FFFFFF;" cx="447.91" cy="457.351" rx="18.253" ry="18.252"/>
	</g>
	<g style="opacity:0.2;">
		<path style="fill:#FFFFFF;" d="M200.353,245.581h191.651c10.039,0,18.253,8.214,18.253,18.252l0,0
			c0,10.039-8.214,18.253-18.253,18.253H200.353c-10.039,0-18.253-8.214-18.253-18.253l0,0
			C182.101,253.795,190.314,245.581,200.353,245.581z"/>
		<path style="fill:#FFFFFF;" d="M224.69,26.552h191.651c10.039,0,18.253,8.214,18.253,18.252l0,0
			c0,10.039-8.214,18.253-18.253,18.253H224.69c-10.039,0-18.252-8.214-18.252-18.253l0,0
			C206.438,34.765,214.651,26.552,224.69,26.552z"/>
		<path style="fill:#FFFFFF;" d="M191.227,172.572h225.114c10.039,0,18.253,8.214,18.253,18.252v0
			c0,10.039-8.214,18.252-18.253,18.252H191.227c-10.039,0-18.253-8.214-18.253-18.252v0
			C172.975,180.785,181.188,172.572,191.227,172.572z"/>
		<path style="fill:#FFFFFF;" d="M182.101,99.562h249.727c10.039,0,18.252,8.214,18.252,18.253l0,0
			c0,10.039-8.214,18.253-18.252,18.253H182.101c-10.039,0-18.252-8.214-18.252-18.253l0,0
			C163.848,107.775,172.062,99.562,182.101,99.562z"/>
		<path style="fill:#FFFFFF;" d="M41.079,209.076h111.488c10.039,0,18.252,8.214,18.252,18.253l0,0
			c0,10.039-8.214,18.253-18.252,18.253H41.079c-10.039,0-18.252-8.214-18.252-18.253l0,0
			C22.827,217.29,31.04,209.076,41.079,209.076z"/>
		<path style="fill:#FFFFFF;" d="M163.731,26.552h11.179c10.039,0,18.252,8.214,18.252,18.252l0,0
			c0,10.039-8.214,18.253-18.252,18.253h-11.179c-10.039,0-18.252-8.214-18.252-18.253l0,0
			C145.479,34.765,153.693,26.552,163.731,26.552z"/>
		<path style="fill:#FFFFFF;" d="M43.463,136.067h98.814c10.039,0,18.252,8.214,18.252,18.252l0,0
			c0,10.039-8.214,18.253-18.252,18.253H43.463c-10.039,0-18.252-8.214-18.252-18.253l0,0
			C25.211,144.28,33.424,136.067,43.463,136.067z"/>
		<path style="fill:#FFFFFF;" d="M373.752,209.076H215.287c10.039,0,18.252,8.214,18.252,18.253l0,0
			c0,10.039-8.214,18.253-18.252,18.253h158.465c-10.039,0-18.252-8.214-18.252-18.253l0,0
			C355.499,217.29,363.713,209.076,373.752,209.076z"/>
		<path style="fill:#FFFFFF;" d="M412.331,63.057H253.866c10.039,0,18.252,8.214,18.252,18.252v0
			c0,10.039-8.214,18.252-18.252,18.252h158.464c-10.039,0-18.252-8.214-18.252-18.252v0
			C394.078,71.27,402.292,63.057,412.331,63.057z"/>
		<path style="fill:#FFFFFF;" d="M414.128,136.067H193.163c10.039,0,18.253,8.214,18.253,18.252l0,0
			c0,10.039-8.214,18.253-18.253,18.253h220.965c-10.039,0-18.252-8.214-18.252-18.253l0,0
			C395.876,144.28,404.09,136.067,414.128,136.067z"/>
		<path style="fill:#FFFFFF;" d="M137.852,172.572H48.099c10.039,0,18.252,8.214,18.252,18.252v0
			c0,10.039-8.214,18.252-18.252,18.252h89.753c-10.039,0-18.252-8.214-18.252-18.252v0
			C119.6,180.785,127.814,172.572,137.852,172.572z"/>
		
			<ellipse transform="matrix(0.1611 -0.9869 0.9869 0.1611 342.4024 492.4326)" style="fill:#FFFFFF;" cx="460.866" cy="44.804" rx="18.252" ry="18.253"/>
		
			<ellipse transform="matrix(0.2467 -0.9691 0.9691 0.2467 77.726 627.6636)" style="fill:#FFFFFF;" cx="442.613" cy="263.834" rx="18.252" ry="18.252"/>
	</g>
	<g style="opacity:0.2;">
		<path style="fill:#FFFFFF;" d="M302.066,435.497H110.415c-10.039,0-18.253,8.214-18.253,18.252v0
			c0,10.039,8.214,18.252,18.253,18.252h191.651c10.039,0,18.253-8.214,18.253-18.252v0
			C320.318,443.71,312.105,435.497,302.066,435.497z"/>
		<path style="fill:#FFFFFF;" d="M277.729,216.467H86.078c-10.039,0-18.252,8.214-18.252,18.252v0
			c0,10.039,8.214,18.252,18.252,18.252h191.651c10.039,0,18.252-8.214,18.252-18.252v0
			C295.981,224.681,287.768,216.467,277.729,216.467z"/>
		<path style="fill:#FFFFFF;" d="M311.192,362.487H86.078c-10.039,0-18.252,8.214-18.252,18.253l0,0
			c0,10.039,8.214,18.253,18.252,18.253h225.114c10.039,0,18.253-8.214,18.253-18.253l0,0
			C329.444,370.7,321.231,362.487,311.192,362.487z"/>
		<path style="fill:#FFFFFF;" d="M320.318,289.477H70.591c-10.039,0-18.252,8.214-18.252,18.253l0,0
			c0,10.039,8.214,18.253,18.252,18.253h249.727c10.039,0,18.252-8.214,18.252-18.253l0,0
			C338.571,297.691,330.357,289.477,320.318,289.477z"/>
		<path style="fill:#FFFFFF;" d="M461.34,398.992H349.852c-10.039,0-18.253,8.214-18.253,18.252l0,0
			c0,10.039,8.214,18.253,18.253,18.253H461.34c10.039,0,18.252-8.214,18.252-18.253l0,0
			C479.592,407.205,471.379,398.992,461.34,398.992z"/>
		<path style="fill:#FFFFFF;" d="M338.688,216.467h-11.179c-10.039,0-18.252,8.214-18.252,18.252v0
			c0,10.039,8.214,18.252,18.252,18.252h11.179c10.039,0,18.252-8.214,18.252-18.252v0
			C356.94,224.681,348.726,216.467,338.688,216.467z"/>
		<path style="fill:#FFFFFF;" d="M458.956,325.982h-98.814c-10.039,0-18.252,8.214-18.252,18.252v0
			c0,10.039,8.214,18.252,18.252,18.252h98.814c10.039,0,18.252-8.214,18.252-18.252v0
			C477.208,334.195,468.995,325.982,458.956,325.982z"/>
		<path style="fill:#FFFFFF;" d="M128.667,398.992h158.464c-10.039,0-18.252,8.214-18.252,18.252l0,0
			c0,10.039,8.214,18.253,18.252,18.253H128.667c10.039,0,18.252-8.214,18.252-18.253l0,0
			C146.92,407.205,138.706,398.992,128.667,398.992z"/>
		<path style="fill:#FFFFFF;" d="M90.088,252.972h158.464c-10.039,0-18.252,8.214-18.252,18.252l0,0
			c0,10.039,8.214,18.252,18.252,18.252H90.088c10.039,0,18.252-8.214,18.252-18.252l0,0
			C108.341,261.186,100.127,252.972,90.088,252.972z"/>
		<path style="fill:#FFFFFF;" d="M88.291,325.982h220.966c-10.039,0-18.253,8.214-18.253,18.252v0
			c0,10.039,8.214,18.252,18.253,18.252H88.291c10.039,0,18.252-8.214,18.252-18.252v0
			C106.543,334.195,98.329,325.982,88.291,325.982z"/>
		<path style="fill:#FFFFFF;" d="M364.567,362.487h89.753c-10.039,0-18.253,8.214-18.253,18.253l0,0
			c0,10.039,8.214,18.253,18.253,18.253h-89.753c10.039,0,18.252-8.214,18.252-18.253l0,0
			C382.819,370.7,374.605,362.487,364.567,362.487z"/>
		
			<ellipse transform="matrix(0.9869 -0.1611 0.1611 0.9869 -37.27 9.7599)" style="fill:#FFFFFF;" cx="41.553" cy="234.72" rx="18.253" ry="18.252"/>
		
			<ellipse transform="matrix(0.7071 -0.7071 0.7071 0.7071 -303.3325 175.1891)" style="fill:#FFFFFF;" cx="59.806" cy="453.749" rx="18.252" ry="18.252"/>
	</g>
</g>
<g id="OBJECTS">
	<g>
		<circle style="fill:#2A8DB8;" cx="250" cy="249" r="114.539"/>
		<path style="fill:#267FA6;" d="M250,134.46c63.258,0,108.053,56.612,100.997,118.189c-6.191,54.029-51.116,93.197-100.997,93.197
			s-94.806-39.168-100.997-93.197C141.947,191.072,186.742,134.46,250,134.46c-63.258,0-114.54,51.281-114.54,114.539
			c0,63.258,51.281,114.54,114.54,114.54S364.539,312.258,364.539,249C364.539,185.742,313.258,134.46,250,134.46z"/>
		<g>
			<defs>
				<circle id="SVGID_1_" cx="250" cy="249" r="114.539"/>
			</defs>
			<clipPath id="SVGID_00000160164552518767062990000008283166689351173774_">
				<use xlink:href="#SVGID_1_"  style="overflow:visible;"/>
			</clipPath>
			<g style="clip-path:url(#SVGID_00000160164552518767062990000008283166689351173774_);">
				<path style="fill:#E9E5EA;" d="M280.026,270.336c0,0,8.436,3.619,17.507,9.619c0,0-7.269,10.918-11.461,49.903
					c-1.845,17.156-1.74,41.105-2.448,69.655c0,0-4.578,7.353-33.623,7.353c-29.045,0-33.624-7.353-33.624-7.353
					c-0.727-29.337-0.569-52.039-2.479-69.379c-4.174-37.881-11.429-50.178-11.429-50.178c9.071-6,17.507-9.619,17.507-9.619
					H280.026z"/>
				<polygon style="fill:#FFFFFF;" points="232.477,289.459 222.092,307.982 244.729,331.302 				"/>
				<polygon style="fill:#FFFFFF;" points="223.426,270.336 215.779,297.827 234.989,303 				"/>
				<path style="fill:#CECBCF;" d="M283.624,399.513c0.727-29.337,0.537-52.314,2.448-69.655
					c4.174-37.881,11.461-49.903,11.461-49.903c-9.071-6-17.507-9.619-17.507-9.619h-30.024v136.53
					C279.046,406.866,283.624,399.513,283.624,399.513z"/>
				<polygon style="fill:#FFFFFF;" points="267.259,289.459 277.644,307.982 255.007,331.302 				"/>
				<polygon style="fill:#FFFFFF;" points="276.31,270.336 283.957,297.827 264.747,303 				"/>
				<polygon style="fill:#77B2B5;" points="273.851,277.162 249.735,345.846 226.097,277.162 249.735,267.533 				"/>
				<path style="fill:#679EA1;" d="M258.454,271.014l-8.586,9.039l-8.613-9.066l-15.159,6.175l2.574,7.48l7.587,9.959l7.913-8.296
					c0.206,3.044,2.734,5.452,5.831,5.452c3.008,0,5.484-2.271,5.811-5.192l7.666,8.036l7.883-10.348l2.49-7.091L258.454,271.014z"
					/>
				<polygon style="fill:#1A5670;" points="244.384,330.297 249.735,345.846 255.69,328.885 252.015,284.004 247.933,283.992 				
					"/>
				<g>
					<path style="fill:#FFFFFF;" d="M276.392,388.991l-14.574,3.035c-2.216,0.462-4.322-1.106-4.322-3.217v-15.96l21.667-4.512
						v17.437C279.163,387.316,278.011,388.653,276.392,388.991z"/>
					<polygon style="fill:#FFFFFF;" points="280.999,370.404 255.66,375.681 255.66,370.404 280.999,365.128 					"/>
				</g>
				<g>
					<path style="fill:#FFFFFF;" d="M223.552,388.991l14.574,3.035c2.217,0.462,4.322-1.106,4.322-3.217v-15.96l-21.667-4.512
						v17.437C220.781,387.316,221.932,388.653,223.552,388.991z"/>
					<polygon style="fill:#FFFFFF;" points="218.944,370.404 244.284,375.681 244.284,370.404 218.944,365.128 					"/>
				</g>
				<path style="fill:none;stroke:#585759;stroke-width:2;stroke-linecap:round;stroke-linejoin:round;stroke-miterlimit:10;" d="
					M284.667,282.907C284.112,264.162,268.608,249,249.735,249h0c-19.221,0-34.948,15.727-34.948,34.948v15.94"/>
				<polygon style="fill:#FFCC92;" points="271.179,272.1 250.001,283.013 228.291,272.1 235.385,231.346 264.085,231.346 				"/>
				<polygon style="fill:#E8B376;" points="249.868,275.41 231.401,254.233 228.291,272.1 250.001,283.013 271.179,272.1 
					268.069,254.236 				"/>
				<path style="fill:#1E6482;" d="M255.852,283.013c0,3.231-2.62,5.851-5.851,5.851c-3.231,0-5.851-2.619-5.851-5.851
					s2.62-5.851,5.851-5.851C253.233,277.162,255.852,279.782,255.852,283.013z"/>
				<path style="fill:#E8B376;" d="M264.085,231.346h-28.699l-3.433,19.721c2.788,3.208,5.428,6.091,6.943,7.358
					c2.867,2.397,9.657,2.24,9.657,2.24s6.79,0.156,9.657-2.24c1.869-1.563,5.45-5.585,8.91-9.643L264.085,231.346z"/>
				<g>
					<path style="fill:#E8B376;" d="M223.36,207.869c1.238,6.297-1.056,12.05-5.124,12.85c-4.068,0.8-8.833-6.017-10.072-12.313
						c-1.238-6.297,1.52-9.69,5.588-10.49C217.821,197.116,222.122,201.572,223.36,207.869z"/>
					<path style="fill:#E8B376;" d="M277.175,207.869c-1.238,6.297,1.056,12.05,5.124,12.85c4.068,0.8,8.833-6.017,10.072-12.313
						c1.238-6.297-1.52-9.69-5.588-10.49C282.715,197.116,278.413,201.572,277.175,207.869z"/>
					<path style="fill:#FFCC92;" d="M250.001,161.312c19.347,0,34.753,18.574,34.753,41.487c0,0-2.747,19.774-7.33,30.188
						c0,0-13.449,16.728-17.766,20.337c-2.867,2.397-9.657,2.24-9.657,2.24l0,0c0,0-6.79,0.156-9.657-2.24
						c-4.317-3.609-17.766-20.337-17.766-20.337c-4.583-10.414-7.33-30.188-7.33-30.188
						C215.248,179.887,230.654,161.312,250.001,161.312z"/>
					<path style="fill:#2A333D;" d="M223.046,170.366c-15.246,22.172-5.895,43.981-5.895,43.981s1.526-20.554,17.004-30.594
						L223.046,170.366z"/>
					<path style="fill:#3F4C5B;" d="M282.734,214.348c0,0-1.526-20.554-17.005-30.594c0,0-35.977,22.59-62.751,2.51
						c0,0,8.96-3.126,16.315-15.479c10.614-17.825,42.3-22.59,57.546-0.418S282.734,214.348,282.734,214.348z"/>
				</g>
				<polygon style="fill:#8FCCCF;" points="230.888,257.18 250.001,277.3 236.258,291.708 219.977,270.336 				"/>
				<polygon style="fill:#8FCCCF;" points="268.848,257.18 249.735,277.3 263.478,291.708 279.759,270.336 				"/>
				<g>
					<path style="fill:none;stroke:#585759;stroke-width:2;stroke-linecap:round;stroke-linejoin:round;stroke-miterlimit:10;" d="
						M285.222,308.086l4.112-8.768c3.041-6.486,0.223-14.281-6.263-17.322c-6.486-3.041-14.281-0.223-17.322,6.263l-3.058,6.522"/>
					<g>
						<path style="fill:#B9B6BA;" d="M259.716,299.093L259.716,299.093c-0.605-0.397-0.776-1.217-0.379-1.822l2.254-3.44
							c0.397-0.605,1.217-0.776,1.822-0.38l0,0c0.605,0.397,0.776,1.216,0.38,1.822l-2.254,3.44
							C261.141,299.319,260.321,299.49,259.716,299.093z"/>
						<path style="fill:#848285;" d="M262.661,294.598l2.021,1.324c0.921,0.604,1.181,1.851,0.577,2.772v0
							c-0.603,0.921-1.851,1.181-2.772,0.577l-2.021-1.324L262.661,294.598z"/>
					</g>
					<g>
						<path style="fill:#B9B6BA;" d="M285.988,306.836L285.988,306.836c0.605,0.397,0.776,1.216,0.379,1.822l-2.254,3.44
							c-0.397,0.605-1.217,0.776-1.822,0.38l0,0c-0.605-0.397-0.776-1.217-0.38-1.822l2.254-3.44
							C284.563,306.61,285.383,306.439,285.988,306.836z"/>
						<path style="fill:#848285;" d="M283.043,311.331l-2.021-1.324c-0.921-0.603-1.181-1.851-0.577-2.772l0,0
							c0.604-0.921,1.851-1.181,2.772-0.577l2.021,1.324L283.043,311.331z"/>
					</g>
				</g>
			</g>
			<path style="clip-path:url(#SVGID_00000160164552518767062990000008283166689351173774_);fill:#CECBCF;" d="M250,358.806
				c-12.068,0-23.697-1.871-34.62-5.331c0.441,13.131,0.56,28.374,0.998,46.038c0,0,4.578,7.353,33.624,7.353
				c29.045,0,33.623-7.353,33.623-7.353c0.426-17.176,0.56-32.671,0.999-46.039C273.699,356.935,262.069,358.806,250,358.806z"/>
		</g>
		<g>
			<path style="fill:#FFFFFF;" d="M202.469,279.955c0,0-15.55,6.316-15.55,28.687c0,30.358,4.065,43.226,8.501,47.285
				c6.011,5.5,12.602,6.365,17.74-8.279C217.297,335.858,208.401,286.668,202.469,279.955z"/>
			<g>
				
					<ellipse transform="matrix(0.1598 -0.9871 0.9871 0.1598 -117.809 467.5836)" style="fill:#848285;" cx="215.781" cy="303" rx="7.381" ry="7.38"/>
				<circle style="fill:#B9B6BA;" cx="215.781" cy="303" r="4.075"/>
			</g>
			<path style="fill:#FFFFFF;" d="M297.531,279.955c0,0,15.55,6.316,15.55,28.687c0,30.358-4.066,43.226-8.501,47.285
				c-6.011,5.5-12.323,4.838-17.281-5.922C282.859,340.373,286.882,297.881,297.531,279.955z"/>
			<path style="fill:#FFFFFF;" d="M203.388,359.417c0,0,44.851,0,75.081-20.046l-5.719-16.279c0,0-36.559,0.443-59.852,7.057
				C212.898,330.15,217.943,354.136,203.388,359.417z"/>
			<path style="fill:#E9E5EA;" d="M274.295,327.489c-5.239-1.351-10.627-2.641-15.795-3.823c-10.5,0.624-25.081,1.918-37.732,4.571
				c11.876,10.707,23.724,17.74,34.283,22.36c8.1-2.777,16.178-6.425,23.418-11.226L274.295,327.489z"/>
			<g>
				<path style="fill:#FFCC92;" d="M232.907,326.259l-1.056-8.032c0,0-10.874-3.059-16.037,4.866
					c-1.499,2.301-1.957,4.739-1.858,7.041C219.762,328.489,226.324,327.227,232.907,326.259z"/>
			</g>
			<g>
				<path style="fill:#FFCC92;" d="M278.929,321.648L278.929,321.648c-1.307-0.364-2.079-1.73-1.715-3.037l1.576-5.667
					c0.363-1.307,1.73-2.079,3.037-1.716h0c1.307,0.364,2.079,1.73,1.715,3.037l-1.576,5.667
					C281.603,321.24,280.236,322.012,278.929,321.648z"/>
				<path style="fill:#FFCC92;" d="M281.697,332.855L281.697,332.855c-4.208,2.248-9.49,0.645-11.738-3.563l0,0
					c-2.248-4.208-0.321-7.662,3.886-9.91l0,0c4.208-2.248,9.166-2.473,11.414,1.735v0
					C287.508,325.325,285.904,330.607,281.697,332.855z"/>
				<path style="fill:#FFCC92;" d="M272.75,323.093L272.75,323.093c-0.691-1.426-0.089-3.158,1.337-3.848l17.229-9.053
					c1.426-0.69,3.158-0.089,3.848,1.337l0,0c0.69,1.426,0.089,3.158-1.337,3.848l-17.229,9.053
					C275.172,325.12,273.44,324.519,272.75,323.093z"/>
				<path style="fill:#FFCC92;" d="M278.895,324.96L278.895,324.96c-0.69-1.426-0.089-3.158,1.337-3.848l10.788-5.208
					c1.426-0.69,3.158-0.089,3.848,1.337l0,0c0.69,1.426,0.089,3.158-1.337,3.848l-10.788,5.208
					C281.317,326.988,279.586,326.386,278.895,324.96z"/>
				<path style="fill:#FFCC92;" d="M277.597,329.711L277.597,329.711c-0.774-1.383-0.276-3.147,1.106-3.921l10.46-5.84
					c1.382-0.774,3.147-0.276,3.921,1.106l0,0c0.774,1.383,0.276,3.147-1.106,3.921l-10.459,5.84
					C280.135,331.591,278.371,331.093,277.597,329.711z"/>
				<path style="fill:#FFCC92;" d="M274.252,334.606L274.252,334.606c-0.894-1.308-0.556-3.11,0.752-4.004l9.897-6.749
					c1.308-0.894,3.11-0.556,4.004,0.752v0c0.894,1.308,0.556,3.11-0.752,4.004l-9.897,6.749
					C276.948,336.252,275.146,335.914,274.252,334.606z"/>
			</g>
			<path style="fill:#FFFFFF;" d="M296.649,359.417c0,0-36.225,1.333-72.451-31.683l8.029-10.423c0,0,31.552,5.934,54.845,12.548
				C287.072,329.858,282.093,354.136,296.649,359.417z"/>
		</g>
	</g>
	<circle style="fill:#267FA6;" cx="114.775" cy="391.593" r="52.371"/>
	<path style="fill:#38A1CE;" d="M163.615,391.721c-1.753,26.069-23.57,45.867-48.84,45.867c-25.27,0-47.086-19.798-48.84-45.867
		c-1.889-28.085,19.916-52.499,48.84-52.499C143.699,339.222,165.504,363.636,163.615,391.721z"/>
	<circle style="fill:#267FA6;" cx="392.593" cy="99.026" r="59.187"/>
	<path style="fill:#38A1CE;" d="M447.906,99.926c-1.93,29.93-26.641,52.703-55.313,52.703c-28.672,0-53.383-22.773-55.313-52.703
		c-2.075-32.176,22.625-60.087,55.313-60.087S449.981,67.75,447.906,99.926z"/>
	<circle style="fill:#267FA6;" cx="389.378" cy="399.174" r="64.886"/>
	<path style="fill:#38A1CE;" d="M449.696,400.151c-2.258,32.549-29.196,57.2-60.318,57.2c-31.122,0-58.06-24.651-60.318-57.2
		c-2.44-35.182,24.482-65.864,60.318-65.864C425.214,334.288,452.136,364.969,449.696,400.151z"/>
	<circle style="fill:#267FA6;" cx="110.191" cy="102.092" r="67.952"/>
	<path style="fill:#38A1CE;" d="M172.16,105.103c-2.873,34.084-30.514,59.479-61.969,59.479s-59.096-25.395-61.969-59.479
		C45.055,67.535,72.663,34.14,110.191,34.14S175.328,67.535,172.16,105.103z"/>
	<circle style="fill:#267FA6;" cx="72.243" cy="249" r="52.276"/>
	<path style="fill:#38A1CE;" d="M120.591,249.886c-1.926,26.073-23.512,45.733-48.349,45.733s-46.423-19.66-48.349-45.733
		c-2.093-28.331,19.477-53.163,48.349-53.163S122.684,221.556,120.591,249.886z"/>
	
		<ellipse transform="matrix(0.7071 -0.7071 0.7071 0.7071 -50.4042 376.3134)" style="fill:#267FA6;" cx="429.048" cy="249" rx="47.297" ry="47.297"/>
	<path style="fill:#38A1CE;" d="M472.562,249.1c-1.841,23.064-21.262,40.377-43.514,40.377c-22.252,0-41.673-17.313-43.514-40.377
		c-2.011-25.196,17.393-47.397,43.514-47.397C455.17,201.703,474.573,223.904,472.562,249.1z"/>
	
		<ellipse transform="matrix(0.1682 -0.9858 0.9858 0.1682 138.9594 304.6661)" style="fill:#267FA6;" cx="250" cy="69.997" rx="47.297" ry="47.297"/>
	<path style="fill:#38A1CE;" d="M295.291,70.362c-1.037,24.629-21.295,43.783-45.291,43.783s-44.254-19.154-45.291-43.783
		C203.623,44.551,223.879,22.7,250,22.7S296.377,44.551,295.291,70.362z"/>
	<circle style="fill:#267FA6;" cx="250" cy="418.846" r="44.812"/>
	<path style="fill:#38A1CE;" d="M291.292,418.965c-1.717,21.915-20.148,38.387-41.292,38.387s-39.576-16.472-41.292-38.387
		c-1.872-23.902,16.543-44.931,41.292-44.931S293.165,395.062,291.292,418.965z"/>
	<g>
		<path style="fill:#FFFFFF;" d="M450.726,243.707l-24.221,24.221c-5.262,5.262-13.873,5.262-19.135,0l0,0
			c-5.262-5.262-5.262-13.873,0-19.135l24.221-24.221c5.262-5.262,13.873-5.262,19.135,0l0,0
			C455.988,229.835,455.988,238.445,450.726,243.707z"/>
		<path style="fill:#FF6162;" d="M407.37,267.929L407.37,267.929c5.262,5.262,13.873,5.262,19.135,0l11.648-11.648
			c-2.051-4.075-4.715-7.82-8.015-11.12c-3.3-3.3-7.045-5.964-11.12-8.015l-11.648,11.648
			C402.108,254.056,402.108,262.667,407.37,267.929z"/>
		<path style="opacity:0.2;fill:#2A333D;" d="M450.726,237.507l-24.221,24.221c-5.262,5.262-13.873,5.262-19.135,0l0,0
			c-1.841-1.841-3.023-4.094-3.576-6.467c-1.028,4.412,0.154,9.246,3.576,12.667l0,0c5.262,5.262,13.873,5.262,19.135,0
			l24.221-24.221c3.422-3.421,4.603-8.256,3.576-12.667C453.749,233.413,452.567,235.667,450.726,237.507z"/>
		<path style="opacity:0.3;fill:#FFFFFF;" d="M426.99,241.285l-13.564,13.564c-0.866,0.866-2.283,0.866-3.149,0l0,0
			c-0.866-0.866-0.866-2.283,0-3.149l13.564-13.564c0.866-0.866,2.283-0.866,3.149,0v0
			C427.855,239.003,427.855,240.419,426.99,241.285z"/>
		<path style="opacity:0.3;fill:#FFFFFF;" d="M436.557,231.718l-2.543,2.543c-0.866,0.866-2.283,0.866-3.149,0l0,0
			c-0.866-0.866-0.866-2.283,0-3.149l2.543-2.543c0.866-0.866,2.283-0.866,3.149,0l0,0
			C437.423,229.435,437.423,230.852,436.557,231.718z"/>
	</g>
	<g>
		<path style="fill:#FF6162;" d="M282.174,411.833c0-9.191-7.451-16.642-16.642-16.642c-7.097,0-13.14,4.45-15.532,10.706
			c-2.393-6.256-8.436-10.706-15.532-10.706c-9.191,0-16.642,7.451-16.642,16.642c0,5.105,2.304,9.667,5.922,12.72h-0.008
			l26.363,26.363l26.363-26.363h-0.212C279.871,421.5,282.174,416.937,282.174,411.833z"/>
		<path style="opacity:0.2;fill:#2A333D;" d="M276.253,418.403h0.212l-26.363,26.363l-26.363-26.363h0.008
			c-2.881-2.431-4.906-5.827-5.62-9.684c-0.191,1.01-0.301,2.048-0.301,3.114c0,5.105,2.304,9.667,5.922,12.72h-0.008l26.363,26.363
			l26.363-26.363h-0.212c3.618-3.053,5.922-7.615,5.922-12.72c0-1.065-0.11-2.104-0.301-3.114
			C281.158,412.576,279.134,415.972,276.253,418.403z"/>
		<polygon style="fill:#FFFFFF;" points="259.94,418.429 254.623,418.429 254.623,413.113 245.377,413.113 245.377,418.429 
			240.06,418.429 240.06,427.676 245.377,427.676 245.377,432.993 254.623,432.993 254.623,427.676 259.94,427.676 		"/>
		<g>
			
				<path style="opacity:0.2;fill:none;stroke:#FFFFFF;stroke-width:3;stroke-linecap:round;stroke-linejoin:round;stroke-miterlimit:10;" d="
				M226.935,401.071c-2.255,1.577-3.907,3.888-4.684,6.469"/>
			
				<path style="opacity:0.2;fill:none;stroke:#FFFFFF;stroke-width:3;stroke-linecap:round;stroke-linejoin:round;stroke-miterlimit:10;" d="
				M234.916,398.935c-1.167-0.11-2.348-0.047-3.496,0.189"/>
			
				<path style="opacity:0.2;fill:none;stroke:#FFFFFF;stroke-width:3;stroke-linecap:round;stroke-linejoin:round;stroke-miterlimit:10;" d="
				M240.349,400.886c-0.2-0.134-0.404-0.262-0.612-0.384"/>
		</g>
		<g>
			
				<path style="opacity:0.2;fill:none;stroke:#FFFFFF;stroke-width:3;stroke-linecap:round;stroke-linejoin:round;stroke-miterlimit:10;" d="
				M257.879,401.071c-1.127,0.788-2.103,1.759-2.895,2.856"/>
			
				<path style="opacity:0.2;fill:none;stroke:#FFFFFF;stroke-width:3;stroke-linecap:round;stroke-linejoin:round;stroke-miterlimit:10;" d="
				M265.86,398.935c-1.167-0.11-2.348-0.047-3.496,0.189"/>
		</g>
	</g>
	<g>
		<path style="fill:#FFFFFF;" d="M407.612,355.707h-49.644v84.934h62.82v-71.758C416.396,364.491,412.004,360.099,407.612,355.707z"
			/>
		<path style="fill:#CECBCF;" d="M407.611,355.707v13.178h13.178C416.396,364.492,412.003,360.099,407.611,355.707z"/>
		<rect x="364.557" y="375.424" style="fill:#E9E5EA;" width="49.642" height="3.691"/>
		<rect x="371.146" y="385.655" style="fill:#E9E5EA;" width="36.465" height="3.691"/>
		<rect x="364.557" y="395.886" style="fill:#E9E5EA;" width="49.642" height="3.691"/>
		<rect x="371.146" y="406.117" style="fill:#E9E5EA;" width="36.465" height="3.691"/>
		<rect x="364.557" y="416.348" style="fill:#E9E5EA;" width="49.642" height="3.691"/>
		<rect x="371.146" y="426.578" style="fill:#E9E5EA;" width="36.465" height="3.691"/>
		<g>
			<polygon style="fill:#FF6162;" points="359.441,384.478 356.626,379.499 351.274,381.516 357.818,363.468 365.985,366.43 			"/>
			<polygon style="fill:#FF6162;" points="374.537,376.354 374.445,370.635 380.083,369.666 365.304,357.413 359.759,364.101 			"/>
			<polygon style="opacity:0.2;fill:#2A333D;" points="372.982,363.779 365.304,357.413 359.759,364.101 367.538,370.551 
				368.258,369.655 371.957,368.65 372.144,364.821 			"/>
			<polygon style="opacity:0.2;fill:#2A333D;" points="357.818,363.468 355.867,368.849 356.474,369.079 358.573,372.287 
				362.273,371.281 363.99,371.934 365.985,366.43 			"/>
			<polygon style="fill:#FF9698;" points="360.046,351.26 363.193,352.455 366.441,351.573 368.284,354.389 371.431,355.585 
				371.267,358.947 373.11,361.763 371.001,364.387 370.837,367.749 367.588,368.632 365.479,371.256 362.332,370.06 
				359.084,370.943 357.24,368.126 354.093,366.931 354.258,363.569 352.414,360.752 354.524,358.129 354.688,354.766 
				357.936,353.884 			"/>
			<path style="fill:#FF6162;" d="M370.106,359.262c1.102,4.056-1.292,8.237-5.348,9.34c-4.056,1.102-8.237-1.292-9.34-5.348
				c-1.102-4.056,1.292-8.237,5.348-9.339C364.823,352.812,369.004,355.206,370.106,359.262z"/>
			<path style="fill:#AD4242;" d="M369.138,359.525c0.957,3.521-1.122,7.151-4.643,8.108c-3.521,0.957-7.151-1.122-8.108-4.643
				c-0.957-3.521,1.122-7.151,4.643-8.108C364.551,353.926,368.181,356.004,369.138,359.525z"/>
		</g>
	</g>
	<g>
		<path style="fill:#FFFFFF;" d="M426.071,136.252L426.071,136.252c-1.577,1.577-4.157,1.577-5.734,0l-27.542-27.542
			c-1.577-1.577-1.577-4.157,0-5.733l0,0c1.577-1.577,4.157-1.577,5.733,0l27.542,27.542
			C427.648,132.095,427.648,134.675,426.071,136.252z"/>
		<path style="fill:#E9E5EA;" d="M390.132,108.774l6.293,6.293c2.327,2.326,6.134,2.326,8.46,0h0c2.327-2.326,2.327-6.134,0-8.46
			l-6.293-6.293L390.132,108.774z"/>
		<path style="fill:#CECBCF;" d="M402.308,104.029l-3.715-3.715l-8.46,8.46l3.715,3.715c1.671-1.05,3.256-2.295,4.71-3.749
			C400.013,107.285,401.258,105.7,402.308,104.029z"/>
		<path style="fill:#FFFFFF;" d="M358.276,68.457c-10.452,10.452-10.452,27.397,0,37.849c10.452,10.452,27.397,10.452,37.849,0
			c10.452-10.452,10.452-27.397,0-37.849C385.673,58.005,368.728,58.005,358.276,68.457z M391.844,102.025
			c-8.087,8.087-21.2,8.087-29.287,0s-8.087-21.2,0-29.287s21.2-8.087,29.287,0C399.931,80.825,399.931,93.938,391.844,102.025z"/>
		<path style="opacity:0.3;fill:#FFFFFF;" d="M377.913,80.994c3.823,3.823,3.823,10.021,0,13.844
			c-3.823,3.823-10.021,3.823-13.844,0c-3.823-3.823-3.823-10.021,0-13.844C367.892,77.171,374.09,77.171,377.913,80.994z"/>
		<path style="opacity:0.3;fill:#FFFFFF;" d="M391.143,85.134c1.536,1.536,1.536,4.027,0,5.563c-1.536,1.536-4.027,1.536-5.563,0
			c-1.536-1.536-1.536-4.027,0-5.563C387.116,83.598,389.607,83.598,391.143,85.134z"/>
	</g>
	<g>
		<rect x="221.484" y="48.809" style="fill:#B84B4C;" width="12.965" height="6.997"/>
		<rect x="221.484" y="53.077" style="fill:#FFFFFF;" width="12.965" height="2.728"/>
		<path style="fill:#FF6162;" d="M231.507,86.171h-7.081c-3.513,0-6.388-2.875-6.388-6.388V58.324c0-1.786,1.461-3.247,3.247-3.247
			h13.363c1.786,0,3.247,1.461,3.247,3.247v21.459C237.895,83.296,235.02,86.171,231.507,86.171z"/>
		<rect x="218.038" y="63.852" style="fill:#FFFFFF;" width="19.857" height="16.162"/>
		<path style="fill:#38A1CE;" d="M231.503,78.415h-7.073c-1.621,0-2.946-1.326-2.946-2.946v-7.073c0-1.621,1.326-2.946,2.946-2.946
			h7.073c1.621,0,2.946,1.326,2.946,2.946v7.073C234.449,77.09,233.123,78.415,231.503,78.415z"/>
	</g>
	<g>
		<rect x="264.686" y="47.146" style="fill:#CECBCF;" width="12.966" height="6.996"/>
		<rect x="264.686" y="51.414" style="fill:#918F91;" width="12.966" height="2.728"/>
		<path style="fill:#FFFFFF;" d="M274.709,87.342h-7.081c-3.513,0-6.388-2.875-6.388-6.388V56.662c0-1.786,1.461-3.247,3.247-3.247
			h13.363c1.786,0,3.247,1.461,3.247,3.247v24.292C281.097,84.468,278.222,87.342,274.709,87.342z"/>
		<rect x="261.24" y="59.323" style="fill:#CECBCF;" width="19.857" height="21.863"/>
		<path style="fill:#FFFFFF;" d="M278.805,73.23l-4.66,4.66c-1.637,1.637-4.315,1.637-5.951,0l-4.66-4.66
			c-1.637-1.637-1.637-4.315,0-5.951l4.66-4.66c1.637-1.637,4.315-1.637,5.951,0l4.66,4.66
			C280.441,68.915,280.441,71.593,278.805,73.23z"/>
	</g>
	<g>
		<rect x="236.712" y="48.423" style="fill:#8EC0C2;" width="26.504" height="3.698"/>
		<rect x="236.712" y="51.414" style="fill:#64ABAD;" width="26.504" height="0.707"/>
		<rect x="236.712" y="43.754" style="fill:#FFFFFF;" width="26.504" height="4.669"/>
		<rect x="236.712" y="52.121" style="fill:#9FCDCF;" width="26.504" height="41.502"/>
		<circle style="fill:#FFFFFF;" cx="249.964" cy="72.872" r="11.276"/>
	</g>
	<g>
		<path style="fill:#CECBCF;" d="M242.151,93.506c0.029-0.741-0.683-1.463-1.874-1.924c-1.667-0.646-4.138-0.726-5.951-0.17
			c-1.362,0.418-2.229,1.152-2.262,1.936c0,0.004,0,0.008,0,0.012c0,0.004,0,0.008,0,0.011c0,0.004,0,0.008,0,0.012
			c0,0.004,0,0.008,0,0.012c0,0.004,0,0.008,0,0.011c0,0.004,0,0.008,0,0.012c0,0.004,0,0.008,0,0.012c0,0.004,0,0.008,0,0.011
			c0,0.004,0,0.008,0,0.012c0,0.004,0,0.008,0,0.012c0,0.004,0,0.008,0,0.012c0,0.004,0,0.008,0,0.012c0,0.004,0,0.008,0,0.012
			c0,0.004,0,0.008,0,0.012c0,0.004,0,0.008,0,0.012c0,0.004,0,0.008,0,0.012c0,0.004,0,0.008,0,0.011c0,0.004,0,0.008,0,0.012
			c0,0.004,0,0.008,0,0.012c0,0.004,0,0.008,0,0.011c0,0.004,0,0.008,0,0.012c0,0.004,0,0.008,0,0.011c0,0.004,0,0.008,0,0.012
			c0,0.004,0,0.008,0,0.012c0,0.004,0,0.008,0,0.011c0,0.004,0,0.008,0,0.012c0,0.004,0,0.008,0,0.012c0,0.004,0,0.008,0,0.011
			c0,0.004,0,0.008,0,0.012c0,0.004,0,0.008,0,0.012c0,0.004,0,0.008,0,0.012c0,0.004,0,0.008,0,0.012c0,0.004,0,0.008,0,0.012
			c0,0.004,0,0.008,0,0.012c0,0.004,0,0.008,0,0.012c0,0.004,0,0.008,0,0.012c0,0.004,0,0.008,0,0.011c0,0.004,0,0.008,0,0.012
			c0,0.004,0,0.008,0,0.012c0,0.004,0,0.008,0,0.011c0,0.004,0,0.008,0,0.012c0,0.004,0,0.008,0,0.011c0,0.004,0,0.008,0,0.012
			c0,0.004,0,0.008,0,0.012c0,0.004,0,0.008,0,0.011c0,0.004,0,0.008,0,0.012c0,0.004,0,0.008,0,0.012c0,0.004,0,0.008,0,0.011
			c0,0.004,0,0.008,0,0.012c0,0.004,0,0.008,0,0.012c0,0.004,0,0.008,0,0.011c0,0.004,0,0.008,0,0.012c0,0.004,0,0.008,0,0.012
			c0,0.004,0,0.008,0,0.012c0,0.004,0,0.008,0,0.012c0,0.004,0,0.008,0,0.012c0,0.004,0,0.008,0,0.011c0,0.004,0,0.008,0,0.012
			c0,0.004,0,0.008,0,0.012c0,0.004,0,0.008,0,0.011c0,0.004,0,0.008,0,0.012c0,0.004,0,0.008,0,0.012c0,0.004,0,0.008,0,0.012
			c0,0.004,0,0.008,0,0.012c0,0.004,0,0.008,0,0.011c0,0.004,0,0.008,0,0.012c0,0.004,0,0.008,0,0.012c0,0.004,0,0.008,0,0.011
			c0,0.004,0,0.008,0,0.012c0,0.004,0,0.008,0,0.012c0,0.004,0,0.008,0,0.011c0,0.004,0,0.008,0,0.012c0,0.004,0,0.008,0,0.012
			c0,0.004,0,0.008,0,0.012c0,0.004,0,0.008,0,0.012c0,0.004,0,0.008,0,0.012c0,0.004,0,0.008,0,0.012c0,0.004,0,0.008,0,0.012
			c0,0.004,0,0.008,0,0.012c0,0.004,0,0.008,0,0.011c0,0.004,0,0.008,0,0.012c0,0.004,0,0.008,0,0.012c0,0.004,0,0.008,0,0.012
			c0,0.004,0,0.008,0,0.012c0,0.004,0,0.008,0,0.011c0,0.004,0,0.008,0,0.012c0,0.004,0,0.008,0,0.012c0,0.004,0,0.008,0,0.011
			c0,0.004,0,0.008,0,0.012c0,0.004,0,0.008,0,0.012c0,0.004,0,0.008,0,0.011c0,0.004,0,0.008,0,0.012c0,0.004,0,0.008,0,0.012
			c0,0.004,0,0.008,0,0.011c0,0.004,0,0.008,0,0.012c0,0.004,0,0.008,0,0.012c0,0.004,0,0.008,0,0.011c0,0.004,0,0.008,0,0.012
			c0,0.004,0,0.008,0,0.012c0,0.004,0,0.008,0,0.011c0,0.004,0,0.008,0,0.012c0,0.004,0,0.008,0,0.012c0,0.004,0,0.008,0,0.011
			c0,0.004,0,0.008,0,0.012c0,0.004,0,0.008,0,0.011c0,0.004,0,0.008,0,0.012c0,0.004,0,0.008,0,0.012c0,0.004,0,0.008,0,0.011
			c0,0.004,0,0.008,0,0.012c0,0.004,0,0.008,0,0.012c0,0.004,0,0.008,0,0.011c0,0.004,0,0.008,0,0.012c0,0.004,0,0.008,0,0.012
			c0,0.004,0,0.008,0,0.011c0,0.004,0,0.008,0,0.012c0,0.004,0,0.008,0,0.012c0,0.004,0,0.008,0,0.011c0,0.004,0,0.008,0,0.012
			c0,0.004,0,0.008,0,0.012c0,0.004,0,0.008,0,0.011c0,0.004,0,0.008,0,0.012c0,0.004,0,0.008,0,0.012c0,0.004,0,0.008,0,0.011
			c0,0.004,0,0.008,0,0.012c0,0.004,0,0.008,0,0.011c0,0.004,0,0.008,0,0.012c0,0.004,0,0.008,0,0.012c0,0.004,0,0.008,0,0.011
			c0,0.004,0,0.008,0,0.012c0,0.004,0,0.008,0,0.012c0,0.004,0,0.008,0,0.011c0,0.004,0,0.008,0,0.012c0,0.004,0,0.008,0,0.012
			c0,0.004,0,0.008,0,0.011c0,0.004,0,0.008,0,0.012c0,0.004,0,0.008,0,0.012c0,0.004,0,0.008,0,0.011c0,0.004,0,0.008,0,0.012
			c0,0.004,0,0.008,0,0.012c0,0.004,0,0.008,0,0.012c0,0.004,0,0.008,0,0.012c0,0.004,0,0.008,0,0.012c0,0.004,0,0.008,0,0.011
			c0,0.004,0,0.008,0,0.012c0,0.004,0,0.008,0,0.012c0,0.004,0,0.008,0,0.012c0,0.004,0,0.008,0,0.012c0,0.004,0,0.008,0,0.011
			c0,0.004,0,0.008,0,0.012c0,0.004,0,0.008,0,0.012c-0.025,0.469,0.249,0.956,0.895,1.405c2.085,1.446,6.248,1.44,8.293,0.063
			c0.607-0.409,0.887-0.862,0.899-1.309c0-0.004,0-0.008,0-0.012c0-0.004,0-0.008,0-0.012c0-0.004,0-0.008,0-0.011
			c0-0.004,0-0.008,0-0.012c0-0.004,0-0.008,0-0.012c0-0.004,0-0.008,0-0.011c0-0.004,0-0.008,0-0.012c0-0.004,0-0.008,0-0.011
			c0-0.004,0-0.008,0-0.012c0-0.004,0-0.008,0-0.012c0-0.004,0-0.008,0-0.011c0-0.004,0-0.008,0-0.012c0-0.004,0-0.008,0-0.012
			c0-0.004,0-0.008,0-0.012c0-0.004,0-0.008,0-0.012c0-0.004,0-0.008,0-0.012c0-0.004,0-0.008,0-0.011c0-0.004,0-0.008,0-0.012
			c0-0.004,0-0.008,0-0.012c0-0.004,0-0.008,0-0.011c0-0.004,0-0.008,0-0.012c0-0.004,0-0.008,0-0.012c0-0.004,0-0.008,0-0.011
			c0-0.004,0-0.008,0-0.012c0-0.004,0-0.008,0-0.012c0-0.004,0-0.008,0-0.011c0-0.004,0-0.008,0-0.012c0-0.004,0-0.008,0-0.011
			c0-0.004,0-0.008,0-0.012c0-0.004,0-0.008,0-0.012c0-0.004,0-0.008,0-0.011c0-0.004,0-0.008,0-0.012c0-0.004,0-0.008,0-0.012
			c0-0.004,0-0.008,0-0.012c0-0.004,0-0.008,0-0.011c0-0.004,0-0.008,0-0.012c0-0.004,0-0.008,0-0.012c0-0.004,0-0.008,0-0.011
			c0-0.004,0-0.008,0-0.012c0-0.004,0-0.008,0-0.011c0-0.004,0-0.008,0-0.012c0-0.004,0-0.008,0-0.012c0-0.004,0-0.008,0-0.011
			c0-0.004,0-0.008,0-0.012c0-0.004,0-0.008,0-0.012c0-0.004,0-0.008,0-0.011c0-0.004,0-0.008,0-0.012c0-0.004,0-0.008,0-0.012
			c0-0.004,0-0.008,0-0.011c0-0.004,0-0.008,0-0.012c0-0.004,0-0.008,0-0.012c0-0.004,0-0.008,0-0.012c0-0.004,0-0.008,0-0.012
			c0-0.004,0-0.008,0-0.012c0-0.004,0-0.008,0-0.011c0-0.004,0-0.008,0-0.012c0-0.004,0-0.008,0-0.012c0-0.004,0-0.008,0-0.011
			c0-0.004,0-0.008,0-0.012c0-0.004,0-0.008,0-0.011c0-0.004,0-0.008,0-0.012c0-0.004,0-0.008,0-0.012c0-0.004,0-0.008,0-0.011
			c0-0.004,0-0.008,0-0.012c0-0.004,0-0.008,0-0.012c0-0.004,0-0.008,0-0.011c0-0.004,0-0.008,0-0.012c0-0.004,0-0.008,0-0.012
			c0-0.004,0-0.008,0-0.011c0-0.004,0-0.008,0-0.012c0-0.004,0-0.008,0-0.012c0-0.004,0-0.008,0-0.012c0-0.004,0-0.008,0-0.012
			c0-0.004,0-0.008,0-0.012c0-0.004,0-0.008,0-0.012c0-0.004,0-0.008,0-0.012c0-0.004,0-0.008,0-0.012c0-0.004,0-0.008,0-0.011
			c0-0.004,0-0.008,0-0.012c0-0.004,0-0.008,0-0.012c0-0.004,0-0.008,0-0.012c0-0.004,0-0.008,0-0.012c0-0.004,0-0.008,0-0.011
			c0-0.004,0-0.008,0-0.012c0-0.004,0-0.008,0-0.012c0-0.004,0-0.008,0-0.011c0-0.004,0-0.008,0-0.012c0-0.004,0-0.008,0-0.012
			c0-0.004,0-0.008,0-0.011c0-0.004,0-0.008,0-0.012c0-0.004,0-0.008,0-0.012c0-0.004,0-0.008,0-0.012c0-0.004,0-0.008,0-0.012
			c0-0.004,0-0.008,0-0.012c0-0.004,0-0.008,0-0.012c0-0.004,0-0.008,0-0.012c0-0.004,0-0.008,0-0.012c0-0.004,0-0.008,0-0.011
			c0-0.004,0-0.008,0-0.012c0-0.004,0-0.008,0-0.012c0-0.004,0-0.008,0-0.012c0-0.004,0-0.008,0-0.012c0-0.004,0-0.008,0-0.011
			c0-0.004,0-0.008,0-0.012c0-0.004,0-0.008,0-0.012c0-0.004,0-0.008,0-0.011c0-0.004,0-0.008,0-0.012c0-0.004,0-0.008,0-0.012
			c0-0.004,0-0.008,0-0.011c0-0.004,0-0.008,0-0.012c0-0.004,0-0.008,0-0.012c0-0.004,0-0.008,0-0.012c0-0.004,0-0.008,0-0.012
			c0-0.004,0-0.008,0-0.011c0-0.004,0-0.008,0-0.012c0-0.004,0-0.008,0-0.012c0-0.004,0-0.008,0-0.011c0-0.004,0-0.008,0-0.012
			c0-0.004,0-0.008,0-0.012c0-0.004,0-0.008,0-0.012c0-0.004,0-0.008,0-0.012c0-0.004,0-0.008,0-0.012c0-0.004,0-0.008,0-0.011
			c0-0.004,0-0.008,0-0.012c0-0.004,0-0.008,0-0.012c0-0.004,0-0.008,0-0.011c0-0.004,0-0.008,0-0.012c0-0.004,0-0.008,0-0.012
			c0-0.004,0-0.008,0-0.011c0-0.004,0-0.008,0-0.012c0-0.004,0-0.008,0-0.012c0-0.004,0-0.008,0-0.011c0-0.004,0-0.008,0-0.012
			c0-0.004,0-0.008,0-0.011c0-0.004,0-0.008,0-0.012c0-0.004,0-0.008,0-0.012c0-0.004,0-0.008,0-0.011c0-0.004,0-0.008,0-0.012
			c0-0.004,0-0.008,0-0.012c0-0.004,0-0.008,0-0.012c0-0.004,0-0.008,0-0.012c0-0.004,0-0.008,0-0.012c0-0.004,0-0.008,0-0.011
			c0-0.004,0-0.008,0-0.012c0-0.004,0-0.008,0-0.012c0-0.004,0-0.008,0-0.011c0-0.004,0-0.008,0-0.012c0-0.004,0-0.008,0-0.012
			c0-0.004,0-0.008,0-0.011C242.151,93.514,242.151,93.51,242.151,93.506z"/>
		<path style="fill:#FFFFFF;" d="M240.277,91.581c1.902,0.738,2.582,2.139,0.974,3.222c-2.045,1.378-6.207,1.383-8.293-0.063
			c-1.719-1.193-0.804-2.662,1.368-3.328C236.14,90.855,238.611,90.935,240.277,91.581z"/>
		<path style="fill:#E9E5EA;" d="M239.993,91.961l-5.561,2.488c-0.249,0.111-0.603,0.108-0.78-0.007l0,0
			c-0.173-0.114-0.106-0.292,0.142-0.395l5.593-2.331c0.137-0.057,0.382-0.051,0.546,0.015l0,0
			C240.1,91.796,240.129,91.9,239.993,91.961z"/>
	</g>
	<g>
		<path style="fill:#CECBCF;" d="M270.519,94.999c0.035-0.856-0.785-1.693-2.16-2.23c-1.925-0.752-4.781-0.852-6.879-0.214
			c-1.576,0.479-2.58,1.325-2.621,2.231c0,0.004,0,0.009,0,0.013c0,0.005,0,0.009,0,0.013c0,0.004,0,0.009,0,0.013
			c0,0.005,0,0.009,0,0.013c0,0.005,0,0.009,0,0.013c0,0.004,0,0.009,0,0.013c0,0.005,0,0.009,0,0.013c0,0.005,0,0.009,0,0.013
			c0,0.004,0,0.009,0,0.013c0,0.005,0,0.009,0,0.013c0,0.005,0,0.009,0,0.013c0,0.004,0,0.009,0,0.013c0,0.005,0,0.009,0,0.013
			c0,0.005,0,0.009,0,0.013c0,0.004,0,0.009,0,0.013c0,0.005,0,0.009,0,0.013c0,0.005,0,0.009,0,0.013c0,0.004,0,0.009,0,0.013
			c0,0.005,0,0.009,0,0.013c0,0.005,0,0.009,0,0.013c0,0.004,0,0.009,0,0.013c0,0.005,0,0.009,0,0.013c0,0.005,0,0.009,0,0.013
			c0,0.005,0,0.009,0,0.013c0,0.005,0,0.009,0,0.013c0,0.005,0,0.009,0,0.013c0,0.005,0,0.009,0,0.013c0,0.005,0,0.009,0,0.013
			c0,0.005,0,0.009,0,0.013c0,0.004,0,0.009,0,0.013c0,0.005,0,0.009,0,0.013c0,0.005,0,0.009,0,0.013c0,0.004,0,0.009,0,0.013
			c0,0.005,0,0.009,0,0.013c0,0.005,0,0.009,0,0.013c0,0.004,0,0.009,0,0.013c0,0.005,0,0.009,0,0.013c0,0.005,0,0.009,0,0.013
			c0,0.004,0,0.009,0,0.013c0,0.005,0,0.009,0,0.013c0,0.005,0,0.009,0,0.013c0,0.004,0,0.009,0,0.013c0,0.004,0,0.009,0,0.013
			c0,0.004,0,0.009,0,0.013c0,0.004,0,0.009,0,0.013c0,0.004,0,0.009,0,0.013c0,0.005,0,0.009,0,0.013c0,0.005,0,0.009,0,0.013
			c0,0.004,0,0.009,0,0.013c0,0.005,0,0.009,0,0.013c0,0.005,0,0.009,0,0.013c0,0.004,0,0.009,0,0.013c0,0.005,0,0.009,0,0.013
			c0,0.004,0,0.009,0,0.013c0,0.004,0,0.009,0,0.013c0,0.004,0,0.009,0,0.013c0,0.004,0,0.009,0,0.013c0,0.004,0,0.009,0,0.013
			c0,0.004,0,0.009,0,0.013c0,0.004,0,0.009,0,0.013c0,0.004,0,0.009,0,0.013c0,0.004,0,0.009,0,0.013c0,0.004,0,0.009,0,0.013
			c0,0.004,0,0.009,0,0.013c0,0.004,0,0.009,0,0.013c0,0.004,0,0.009,0,0.013c0,0.004,0,0.009,0,0.013c0,0.004,0,0.009,0,0.013
			c0,0.004,0,0.009,0,0.013c0,0.005,0,0.009,0,0.013c0,0.004,0,0.009,0,0.013c0,0.004,0,0.009,0,0.013c0,0.005,0,0.009,0,0.013
			c0,0.005,0,0.009,0,0.013c0,0.004,0,0.009,0,0.013c0,0.005,0,0.009,0,0.013c0,0.004,0,0.009,0,0.013c0,0.004,0,0.009,0,0.013
			c0,0.005,0,0.009,0,0.013c0,0.004,0,0.009,0,0.013c0,0.004,0,0.009,0,0.013c0,0.005,0,0.009,0,0.013c0,0.004,0,0.009,0,0.013
			c0,0.004,0,0.009,0,0.013c0,0.005,0,0.009,0,0.013c0,0.004,0,0.009,0,0.013c0,0.004,0,0.009,0,0.013c0,0.005,0,0.009,0,0.013
			c0,0.004,0,0.009,0,0.013c0,0.004,0,0.009,0,0.013c0,0.005,0,0.009,0,0.013c0,0.004,0,0.009,0,0.013c0,0.004,0,0.009,0,0.013
			c0,0.005,0,0.009,0,0.013c0,0.004,0,0.009,0,0.013c0,0.004,0,0.009,0,0.013c0,0.005,0,0.009,0,0.013c0,0.004,0,0.009,0,0.013
			c0,0.004,0,0.009,0,0.013c0,0.005,0,0.009,0,0.013c0,0.005,0,0.009,0,0.013c0,0.004,0,0.009,0,0.013c0,0.004,0,0.009,0,0.013
			c0,0.005,0,0.009,0,0.013c0,0.004,0,0.009,0,0.013c0,0.004,0,0.009,0,0.013c0,0.005,0,0.009,0,0.013c0,0.004,0,0.009,0,0.013
			c0,0.004,0,0.009,0,0.013c0,0.005,0,0.009,0,0.013c0,0.004,0,0.009,0,0.013c0,0.004,0,0.009,0,0.013c0,0.005,0,0.009,0,0.013
			c0,0.004,0,0.009,0,0.013c0,0.004,0,0.009,0,0.013c0,0.005,0,0.009,0,0.013c0,0.004,0,0.009,0,0.013c0,0.004,0,0.009,0,0.013
			c0,0.005,0,0.009,0,0.013c0,0.004,0,0.009,0,0.013c0,0.004,0,0.009,0,0.013c0,0.005,0,0.009,0,0.013c0,0.005,0,0.009,0,0.013
			c0,0.005,0,0.009,0,0.013c0,0.005,0,0.009,0,0.013c0,0.005,0,0.009,0,0.013c0,0.005,0,0.009,0,0.013c0,0.005,0,0.009,0,0.013
			c0,0.005,0,0.009,0,0.013c0,0.005,0,0.009,0,0.013c0,0.005,0,0.009,0,0.013c0,0.004,0,0.009,0,0.013c0,0.005,0,0.009,0,0.013
			c0,0.005,0,0.009,0,0.013c0,0.004,0,0.009,0,0.013c0,0.005,0,0.009,0,0.013c0,0.005,0,0.009,0,0.013c0,0.004,0,0.009,0,0.013
			c0,0.005,0,0.009,0,0.013c0,0.005,0,0.009,0,0.013c0,0.004,0,0.009,0,0.013c0,0.005,0,0.009,0,0.013c0,0.004,0,0.009,0,0.013
			c0,0.004,0,0.009,0,0.013c0,0.005,0,0.009,0,0.013c0,0.004,0,0.009,0,0.013c0,0.005,0,0.009,0,0.013c0,0.005,0,0.009,0,0.013
			c0,0.004,0,0.009,0,0.013c0,0.005,0,0.009,0,0.013c-0.03,0.542,0.285,1.106,1.03,1.627c2.406,1.678,7.218,1.684,9.587,0.098
			c0.702-0.471,1.028-0.994,1.044-1.51c0-0.004,0-0.009,0-0.013c0-0.004,0-0.009,0-0.013c0-0.005,0-0.009,0-0.013
			c0-0.004,0-0.009,0-0.013c0-0.005,0-0.009,0-0.013c0-0.005,0-0.009,0-0.013c0-0.004,0-0.009,0-0.013c0-0.004,0-0.009,0-0.013
			c0-0.005,0-0.009,0-0.013c0-0.004,0-0.009,0-0.013c0-0.004,0-0.009,0-0.013c0-0.005,0-0.009,0-0.013c0-0.004,0-0.009,0-0.013
			c0-0.004,0-0.009,0-0.013c0-0.005,0-0.009,0-0.013c0-0.004,0-0.009,0-0.013c0-0.004,0-0.009,0-0.013c0-0.005,0-0.009,0-0.013
			c0-0.004,0-0.009,0-0.013c0-0.004,0-0.009,0-0.013c0-0.004,0-0.009,0-0.013c0-0.004,0-0.009,0-0.013c0-0.004,0-0.009,0-0.013
			c0-0.004,0-0.009,0-0.013c0-0.004,0-0.009,0-0.013c0-0.004,0-0.009,0-0.013c0-0.004,0-0.009,0-0.013c0-0.004,0-0.009,0-0.013
			c0-0.004,0-0.009,0-0.013c0-0.004,0-0.009,0-0.013c0-0.004,0-0.009,0-0.013c0-0.004,0-0.009,0-0.013c0-0.005,0-0.009,0-0.013
			c0-0.004,0-0.009,0-0.013c0-0.005,0-0.009,0-0.013c0-0.004,0-0.009,0-0.013c0-0.005,0-0.009,0-0.013c0-0.005,0-0.009,0-0.013
			c0-0.004,0-0.009,0-0.013c0-0.005,0-0.009,0-0.013c0-0.004,0-0.009,0-0.013c0-0.005,0-0.009,0-0.013c0-0.004,0-0.009,0-0.013
			c0-0.004,0-0.009,0-0.013c0-0.005,0-0.009,0-0.013c0-0.004,0-0.009,0-0.013c0-0.004,0-0.009,0-0.013c0-0.005,0-0.009,0-0.013
			c0-0.004,0-0.009,0-0.013c0-0.004,0-0.009,0-0.013c0-0.005,0-0.009,0-0.013c0-0.004,0-0.009,0-0.013c0-0.004,0-0.009,0-0.013
			c0-0.005,0-0.009,0-0.013c0-0.004,0-0.009,0-0.013c0-0.004,0-0.009,0-0.013c0-0.005,0-0.009,0-0.013c0-0.004,0-0.009,0-0.013
			c0-0.004,0-0.009,0-0.013c0-0.005,0-0.009,0-0.013c0-0.005,0-0.009,0-0.014c0-0.004,0-0.009,0-0.013c0-0.004,0-0.009,0-0.013
			c0-0.004,0-0.009,0-0.013c0-0.005,0-0.009,0-0.013c0-0.005,0-0.009,0-0.013c0-0.004,0-0.009,0-0.013c0-0.005,0-0.009,0-0.013
			c0-0.005,0-0.009,0-0.013c0-0.004,0-0.009,0-0.013c0-0.005,0-0.009,0-0.013c0-0.005,0-0.009,0-0.013c0-0.004,0-0.009,0-0.013
			c0-0.005,0-0.009,0-0.013c0-0.005,0-0.009,0-0.013c0-0.004,0-0.009,0-0.013c0-0.005,0-0.009,0-0.013c0-0.005,0-0.009,0-0.013
			c0-0.004,0-0.009,0-0.013s0-0.009,0-0.013c0-0.005,0-0.009,0-0.013c0-0.004,0-0.009,0-0.013c0-0.005,0-0.009,0-0.013
			c0-0.005,0-0.009,0-0.013c0-0.005,0-0.009,0-0.013c0-0.005,0-0.009,0-0.013c0-0.005,0-0.009,0-0.013c0-0.005,0-0.009,0-0.013
			c0-0.005,0-0.009,0-0.013c0-0.004,0-0.009,0-0.013c0-0.004,0-0.009,0-0.013c0-0.005,0-0.009,0-0.013c0-0.004,0-0.009,0-0.013
			c0-0.004,0-0.009,0-0.013c0-0.005,0-0.009,0-0.013c0-0.004,0-0.009,0-0.013c0-0.004,0-0.009,0-0.013c0-0.005,0-0.009,0-0.013
			c0-0.004,0-0.009,0-0.013c0-0.004,0-0.009,0-0.013c0-0.004,0-0.009,0-0.013c0-0.004,0-0.009,0-0.013c0-0.004,0-0.009,0-0.013
			c0-0.004,0-0.009,0-0.013c0-0.004,0-0.009,0-0.013c0-0.004,0-0.009,0-0.013c0-0.004,0-0.009,0-0.013c0-0.004,0-0.009,0-0.013
			c0-0.004,0-0.009,0-0.013c0-0.004,0-0.009,0-0.013c0-0.004,0-0.009,0-0.013c0-0.005,0-0.009,0-0.013c0-0.004,0-0.009,0-0.013
			c0-0.004,0-0.009,0-0.013c0-0.005,0-0.009,0-0.013c0-0.004,0-0.009,0-0.013c0-0.004,0-0.009,0-0.013c0-0.005,0-0.009,0-0.013
			c0-0.005,0-0.009,0-0.013c0-0.005,0-0.009,0-0.013c0-0.004,0-0.009,0-0.013c0-0.005,0-0.009,0-0.013c0-0.004,0-0.009,0-0.013
			c0-0.004,0-0.009,0-0.013c0-0.005,0-0.009,0-0.013c0-0.004,0-0.009,0-0.013c0-0.004,0-0.009,0-0.013c0-0.005,0-0.009,0-0.013
			c0-0.004,0-0.009,0-0.013c0-0.004,0-0.009,0-0.013c0-0.005,0-0.009,0-0.013c0-0.004,0-0.009,0-0.013c0-0.004,0-0.009,0-0.013
			c0-0.005,0-0.009,0-0.013c0-0.004,0-0.009,0-0.013c0-0.004,0-0.009,0-0.013c0-0.005,0-0.009,0-0.013c0-0.004,0-0.009,0-0.013
			c0-0.004,0-0.009,0-0.013c0-0.005,0-0.009,0-0.013c0-0.004,0-0.009,0-0.013c0-0.005,0-0.009,0-0.013c0-0.005,0-0.009,0-0.013
			c0-0.004,0-0.009,0-0.013c0-0.005,0-0.009,0-0.013c0-0.005,0-0.009,0-0.013c0-0.005,0-0.009,0-0.013c0-0.005,0-0.009,0-0.013
			c0-0.005,0-0.009,0-0.013C270.519,95.008,270.519,95.004,270.519,94.999z"/>
		<path style="fill:#FFFFFF;" d="M268.359,92.769c2.197,0.859,2.979,2.48,1.117,3.728c-2.368,1.586-7.18,1.581-9.587-0.098
			c-1.984-1.384-0.921-3.08,1.591-3.844C263.577,91.917,266.434,92.017,268.359,92.769z"/>
		<path style="fill:#E9E5EA;" d="M261.54,93.35l5.523,3.141c0.247,0.141,0.638,0.166,0.859,0.055l0,0
			c0.218-0.109,0.186-0.307-0.063-0.439l-5.595-2.974c-0.138-0.073-0.407-0.086-0.604-0.028l0,0
			C261.461,93.163,261.405,93.273,261.54,93.35z"/>
	</g>
	<g>
		<path style="fill:#CECBCF;" d="M257.31,99.724c0.033-1.288-1.501-2.401-3.495-2.86c-2.036-0.469-4.559-0.26-6.275,0.485
			c-1.301,0.564-2.191,1.462-2.26,2.415c-0.001,0.006,0,0.011,0,0.017c-0.001,0.006,0.001,0.012,0,0.017s0,0.012,0,0.017
			c-0.001,0.006,0,0.012,0,0.017c-0.001,0.006,0.001,0.012,0,0.018c-0.001,0.006,0,0.012,0,0.017c-0.001,0.006,0,0.012,0,0.017
			c-0.001,0.006,0,0.011,0,0.017c-0.001,0.006,0.001,0.012,0,0.017c-0.001,0.006,0,0.012,0,0.017c-0.001,0.006,0,0.012,0,0.017
			c-0.001,0.006,0.001,0.012,0,0.017c-0.001,0.006,0,0.012,0,0.017c-0.001,0.006,0,0.012,0,0.017c-0.001,0.006,0.001,0.012,0,0.017
			c-0.001,0.006,0,0.012,0,0.017c-0.001,0.006,0,0.011,0,0.017c-0.001,0.006,0.001,0.012,0,0.018c-0.001,0.006,0,0.011,0,0.017
			c-0.001,0.006,0,0.012,0,0.017c-0.001,0.006,0.001,0.012,0,0.017c-0.001,0.006,0,0.012,0,0.017c-0.001,0.006,0,0.011,0,0.017
			c-0.001,0.006,0.001,0.012,0,0.017c-0.001,0.006,0,0.012,0,0.017c-0.001,0.006,0,0.012,0,0.017c-0.001,0.006,0,0.011,0,0.017
			c-0.001,0.006,0.001,0.011,0,0.017c-0.001,0.006,0,0.012,0,0.017c-0.001,0.006,0,0.011,0,0.017c-0.001,0.006,0.001,0.012,0,0.018
			c-0.001,0.006,0,0.012,0,0.017c-0.001,0.006,0,0.012,0,0.017c-0.001,0.006,0.001,0.012,0,0.017s0,0.012,0,0.017
			c-0.001,0.006,0,0.012,0,0.017c-0.001,0.006,0.001,0.012,0,0.017s0,0.012,0,0.017c-0.001,0.006,0,0.011,0,0.017
			c-0.001,0.006,0.001,0.012,0,0.018c-0.001,0.006,0,0.011,0,0.017c-0.001,0.006,0,0.012,0,0.017c-0.001,0.006,0.001,0.011,0,0.017
			c-0.001,0.006,0,0.012,0,0.017c-0.001,0.006,0,0.012,0,0.017c-0.001,0.006,0,0.011,0,0.017c-0.001,0.006,0.001,0.012,0,0.018
			c-0.001,0.006,0,0.012,0,0.017c-0.001,0.006,0,0.011,0,0.017c-0.001,0.006,0.001,0.012,0,0.017c-0.001,0.006,0,0.012,0,0.017
			c-0.001,0.006,0,0.011,0,0.017c-0.001,0.006,0.001,0.012,0,0.018c-0.001,0.006,0,0.012,0,0.017c-0.001,0.006,0,0.012,0,0.017
			c-0.001,0.006,0.001,0.012,0,0.017s0,0.012,0,0.017c-0.001,0.006,0,0.012,0,0.017c-0.001,0.006,0.001,0.012,0,0.017
			c-0.001,0.006,0,0.012,0,0.017c-0.001,0.006,0,0.012,0,0.017c-0.001,0.006,0.001,0.012,0,0.018c-0.001,0.006,0,0.011,0,0.017
			c-0.001,0.006,0,0.012,0,0.017c-0.001,0.006,0,0.011,0,0.017c-0.001,0.006,0.001,0.012,0,0.017s0,0.012,0,0.017
			c-0.001,0.006,0,0.012,0,0.017c-0.001,0.006,0.001,0.012,0,0.018c-0.001,0.006,0,0.011,0,0.017c-0.001,0.006,0,0.012,0,0.017
			c-0.001,0.006,0.001,0.011,0,0.017c-0.001,0.006,0,0.012,0,0.017c-0.001,0.006,0,0.012,0,0.017c-0.001,0.006,0.001,0.012,0,0.018
			c-0.001,0.006,0,0.012,0,0.017c-0.001,0.006,0,0.012,0,0.017c-0.001,0.006,0.001,0.012,0,0.017c-0.001,0.006,0,0.012,0,0.017
			c-0.001,0.006,0,0.012,0,0.017c-0.001,0.006,0.001,0.012,0,0.017c-0.001,0.006,0,0.012,0,0.017c-0.001,0.006,0,0.012,0,0.017
			c-0.001,0.006,0,0.012,0,0.017c-0.001,0.006,0.001,0.012,0,0.017s0,0.012,0,0.017c-0.001,0.006,0,0.012,0,0.017
			c-0.001,0.006,0.001,0.012,0,0.017c-0.001,0.006,0,0.012,0,0.017c-0.001,0.006,0,0.012,0,0.017c-0.001,0.006,0.001,0.012,0,0.018
			c-0.001,0.006,0,0.011,0,0.017c-0.001,0.006,0,0.011,0,0.017c-0.001,0.006,0.001,0.011,0,0.017c-0.001,0.006,0,0.012,0,0.017
			c-0.001,0.006,0,0.011,0,0.017c-0.001,0.006,0.001,0.012,0,0.017c-0.001,0.006,0,0.012,0,0.017c-0.001,0.006,0,0.012,0,0.017
			c-0.001,0.006,0.001,0.012,0,0.018s0,0.012,0,0.017c-0.001,0.006,0,0.012,0,0.017c-0.001,0.006,0,0.012,0,0.017
			c-0.001,0.006,0.001,0.012,0,0.018c-0.001,0.006,0,0.012,0,0.017c-0.001,0.006,0,0.012,0,0.017c-0.001,0.006,0.001,0.012,0,0.017
			c-0.001,0.006,0,0.012,0,0.017c-0.001,0.006,0,0.012,0,0.017c-0.001,0.006,0.001,0.012,0,0.017c-0.001,0.006,0,0.012,0,0.017
			c-0.001,0.006,0,0.011,0,0.017c-0.001,0.006,0.001,0.012,0,0.017c-0.001,0.006,0,0.012,0,0.017c-0.001,0.006,0,0.011,0,0.017
			c-0.001,0.006,0.001,0.011,0,0.017c-0.001,0.006,0,0.012,0,0.017c-0.001,0.006,0,0.012,0,0.017c-0.001,0.006,0.001,0.012,0,0.017
			c-0.001,0.006,0,0.012,0,0.017c-0.001,0.006,0,0.012,0,0.017c-0.001,0.006,0,0.012,0,0.017c-0.001,0.006,0.001,0.012,0,0.017
			c-0.001,0.006,0,0.012,0,0.017c-0.001,0.006,0,0.011,0,0.017c-0.001,0.006,0.001,0.012,0,0.017c-0.001,0.006,0,0.012,0,0.017
			c-0.001,0.006,0,0.012,0,0.017c-0.001,0.006,0.001,0.012,0,0.017s0,0.012,0,0.017c-0.001,0.006,0,0.012,0,0.017
			c-0.001,0.006,0.001,0.012,0,0.017s0,0.012,0,0.017c-0.001,0.006,0,0.011,0,0.017c-0.001,0.006,0.001,0.012,0,0.018
			c-0.001,0.006,0,0.011,0,0.017c-0.001,0.006,0,0.012,0,0.017c-0.001,0.006,0.001,0.012,0,0.017c-0.001,0.006,0,0.012,0,0.017
			c-0.001,0.006,0,0.012,0,0.017c-0.001,0.006,0,0.011,0,0.017c-0.001,0.006,0.001,0.012,0,0.017c-0.001,0.006,0,0.012,0,0.017
			c-0.001,0.006,0,0.012,0,0.018c-0.001,0.006,0.001,0.011,0,0.017c-0.001,0.006,0,0.012,0,0.017c-0.001,0.006,0,0.011,0,0.017
			c-0.001,0.006,0.001,0.012,0,0.018c-0.001,0.006,0,0.012,0,0.017c-0.001,0.006,0,0.012,0,0.017
			c-0.047,0.568,0.197,1.157,0.821,1.707c2.521,2.223,8.386,2.126,10.622-0.41c0.4-0.454,0.582-0.906,0.588-1.338
			c0-0.006,0-0.012,0-0.017c0-0.006,0-0.012,0-0.017c0-0.006,0-0.011,0-0.017c0-0.006,0-0.012,0-0.017c0-0.006,0-0.011,0-0.017
			c0-0.006,0-0.012,0-0.017c0-0.006,0-0.011,0-0.017c0-0.006,0-0.011,0-0.017c0-0.006,0-0.012,0-0.017c0-0.006,0-0.012,0-0.017
			c0-0.006,0-0.012,0-0.017c0-0.006,0-0.012,0-0.017c0-0.006,0-0.012,0-0.018c0-0.006,0-0.011,0-0.017c0-0.006,0-0.012,0-0.017
			c0-0.006,0-0.012,0-0.017c0-0.006,0-0.012,0-0.017c0-0.006,0-0.011,0-0.017c0-0.006,0-0.012,0-0.017c0-0.006,0-0.012,0-0.017
			c0-0.006,0-0.012,0-0.017c0-0.006,0-0.012,0-0.018c0-0.006,0-0.012,0-0.017c0-0.006,0-0.012,0-0.017c0-0.006,0-0.012,0-0.017
			c0-0.006,0-0.011,0-0.017c0-0.006,0-0.011,0-0.017c0-0.006,0-0.012,0-0.017c0-0.006,0-0.011,0-0.017c0-0.006,0-0.011,0-0.017
			c0-0.006,0-0.011,0-0.017c0-0.006,0-0.012,0-0.017c0-0.006,0-0.012,0-0.017c0-0.006,0-0.012,0-0.017c0-0.006,0-0.012,0-0.018
			c0-0.006,0-0.012,0-0.017c0-0.006,0-0.012,0-0.017c0-0.006,0-0.012,0-0.017c0-0.006,0-0.012,0-0.017c0-0.006,0-0.011,0-0.017
			c0-0.006,0-0.012,0-0.017c0-0.006,0-0.012,0-0.017c0-0.006,0-0.012,0-0.017c0-0.006,0-0.012,0-0.018c0-0.006,0-0.011,0-0.017
			c0-0.006,0-0.012,0-0.017c0-0.006,0-0.011,0-0.017c0-0.006,0-0.012,0-0.017c0-0.006,0-0.012,0-0.017c0-0.006,0-0.012,0-0.017
			c0-0.006,0-0.011,0-0.017c0-0.006,0-0.012,0-0.017c0-0.006,0-0.011,0-0.017c0-0.006,0-0.012,0-0.017c0-0.006,0-0.012,0-0.017
			c0-0.006,0-0.011,0-0.017c0-0.006,0-0.012,0-0.017c0-0.006,0-0.011,0-0.017c0-0.006,0-0.012,0-0.017c0-0.006,0-0.012,0-0.017
			c0-0.006,0-0.012,0-0.017c0-0.006,0-0.012,0-0.017c0-0.006,0-0.012,0-0.017c0-0.006,0-0.012,0-0.017c0-0.006,0-0.012,0-0.017
			c0-0.006,0-0.012,0-0.017c0-0.006,0-0.012,0-0.017c0-0.006,0-0.012,0-0.017c0-0.006,0-0.011,0-0.017c0-0.006,0-0.012,0-0.018
			c0-0.006,0-0.011,0-0.017c0-0.006,0-0.012,0-0.017c0-0.006,0-0.012,0-0.018c0-0.006,0-0.011,0-0.017c0-0.006,0-0.011,0-0.017
			c0-0.006,0-0.011,0-0.017c0-0.006,0-0.012,0-0.017c0-0.006,0-0.011,0-0.017c0-0.006,0-0.012,0-0.017c0-0.006,0-0.011,0-0.017
			c0-0.006,0-0.012,0-0.017c0-0.006,0-0.012,0-0.017c0-0.006,0-0.012,0-0.017c0-0.006,0-0.012,0-0.017c0-0.006,0-0.012,0-0.017
			c0-0.006,0-0.012,0-0.018c0-0.006,0-0.011,0-0.017c0-0.006,0-0.012,0-0.017c0-0.006,0-0.012,0-0.017c0-0.006,0-0.012,0-0.017
			c0-0.006,0-0.011,0-0.017c0-0.006,0-0.012,0-0.017c0-0.006,0-0.012,0-0.017c0-0.006,0-0.012,0-0.017c0-0.006,0-0.012,0-0.018
			c0-0.006,0-0.011,0-0.017c0-0.006,0-0.012,0-0.017c0-0.006,0-0.011,0-0.017c0-0.006,0-0.011,0-0.017c0-0.006,0-0.011,0-0.017
			c0-0.006,0-0.012,0-0.017c0-0.006,0-0.012,0-0.017c0-0.006,0-0.012,0-0.017c0-0.006,0-0.012,0-0.017c0-0.006,0-0.012,0-0.017
			c0-0.006,0-0.012,0-0.017c0-0.006,0-0.012,0-0.017c0-0.006,0-0.012,0-0.018c0-0.006,0-0.011,0-0.017c0-0.006,0-0.012,0-0.017
			c0-0.006,0-0.012,0-0.017c0-0.006,0-0.012,0-0.017c0-0.006,0-0.012,0-0.017c0-0.006,0-0.012,0-0.017c0-0.006,0-0.012,0-0.017
			c0-0.006,0-0.012,0-0.017c0-0.006,0-0.012,0-0.017c0-0.006,0-0.011,0-0.017c0-0.006,0-0.012,0-0.017c0-0.006,0-0.011,0-0.017
			c0-0.006,0-0.012,0-0.017c0-0.006,0-0.011,0-0.017c0-0.006,0-0.012,0-0.017c0-0.006,0-0.011,0-0.017c0-0.006,0-0.012,0-0.017
			c0-0.006,0-0.012,0-0.017c0-0.006,0-0.012,0-0.017c0-0.006,0-0.012,0-0.017c0-0.006,0-0.011,0-0.017c0-0.006,0-0.012,0-0.017
			c0-0.006,0-0.012,0-0.017c0-0.006,0-0.012,0-0.017c0-0.006,0-0.012,0-0.017c0-0.006,0-0.012,0-0.017c0-0.006,0-0.011,0-0.017
			c0-0.006,0-0.012,0-0.017c0-0.006,0-0.012,0-0.017c0-0.006,0-0.012,0-0.017c0-0.006,0-0.012,0-0.018c0-0.006,0-0.011,0-0.017
			c0-0.006,0-0.012,0-0.017c0-0.006,0-0.012,0-0.017c0-0.006,0-0.012,0-0.018c0-0.006,0-0.011,0-0.017c0-0.006,0-0.011,0-0.017
			c0-0.006,0-0.012,0-0.017c0-0.006,0-0.012,0-0.017c0-0.006,0-0.011,0-0.017c0-0.006,0-0.011,0-0.017
			C257.31,99.735,257.309,99.73,257.31,99.724z"/>
		<path style="fill:#FFFFFF;" d="M256.721,101.044c-2.236,2.535-8.101,2.633-10.622,0.409c-1.663-1.466-0.629-3.208,1.439-4.105
			c1.716-0.744,4.239-0.954,6.275-0.485C256.469,97.475,258.309,99.243,256.721,101.044z"/>
		<path style="fill:#E9E5EA;" d="M254.649,100.66l-6.834-2.919c-0.14-0.06-0.104-0.174,0.073-0.253l0,0
			c0.174-0.078,0.428-0.097,0.571-0.043l6.851,2.603c0.361,0.137,0.526,0.393,0.35,0.568l0,0
			C255.479,100.798,255.016,100.817,254.649,100.66z"/>
	</g>
	<g>
		<circle style="fill:#C6E4E6;" cx="114.775" cy="406.683" r="23.692"/>
		<path style="fill:#FF5455;" d="M94.955,404.071c-0.104,0.823-0.071,1.761-0.071,2.612c0,10.986,8.906,19.892,19.892,19.892
			c10.986,0,19.892-8.906,19.892-19.892c0-0.851,0.032-1.789-0.071-2.612H94.955z"/>
		<path style="fill:#A5D6D9;" d="M114.775,386.723L114.775,386.723c-4.505,0-8.191-2.252-8.191-2.252v-26.054
			c0,0,3.686-2.649,8.191-2.649h0c4.505,0,8.191,2.649,8.191,2.649v26.054C122.966,384.471,119.28,386.723,114.775,386.723z"/>
		<ellipse style="fill:#C6E4E6;" cx="114.775" cy="355.768" rx="13.1" ry="5.423"/>
		<ellipse style="fill:#81A8AB;" cx="114.775" cy="354.897" rx="6.98" ry="0.871"/>
		<ellipse style="fill:#FF7A7D;" cx="114.775" cy="404.071" rx="19.82" ry="4.251"/>
		
			<path style="opacity:0.4;fill:none;stroke:#FFFFFF;stroke-width:3;stroke-linecap:round;stroke-linejoin:round;stroke-miterlimit:10;" d="
			M105.497,389.75c-3.837,2.202-6.92,5.629-8.688,9.686"/>
	</g>
	<g>
		<path style="fill:#E9E5EA;" d="M119.9,69.515c2.969,2.132,4.917,5.604,4.917,9.519v2.089c0,6.457-5.283,11.741-11.741,11.741
			h-5.771c-6.457,0-11.741-5.283-11.741-11.741v-2.089c0-3.915,1.948-7.386,4.917-9.519h-6.48c-1.923,2.397-3.073,5.427-3.073,8.892
			v3.342c0,8.64,7.069,15.709,15.709,15.709h7.105c8.64,0,15.709-7.069,15.709-15.709v-3.342c0-3.465-1.15-6.495-3.072-8.892H119.9z
			"/>
		<path style="fill:#3F4C5B;" d="M116.771,89.49h-13.159c-3.231,0-5.874-2.643-5.874-5.874l0,0c0-3.231,2.643-5.874,5.874-5.874
			h13.159c3.231,0,5.874,2.643,5.874,5.874l0,0C122.645,86.847,120.002,89.49,116.771,89.49z"/>
		<path style="fill:#CECBCF;" d="M81.795,89.131h-2.621c-3.033,0-5.514-2.481-5.514-5.514l0,0c0-3.033,2.481-5.514,5.514-5.514
			h2.621c3.033,0,5.514,2.481,5.514,5.514l0,0C87.309,86.649,84.828,89.131,81.795,89.131z"/>
		<path style="fill:#CECBCF;" d="M141.208,89.131h-2.621c-3.033,0-5.514-2.481-5.514-5.514l0,0c0-3.033,2.481-5.514,5.514-5.514
			h2.621c3.033,0,5.514,2.481,5.514,5.514l0,0C146.722,86.649,144.241,89.131,141.208,89.131z"/>
		<path style="fill:#FFFFFF;" d="M144.985,132.709H75.397c-3.927,0-7.111-3.184-7.111-7.111V89.159c0-3.927,3.184-7.111,7.111-7.111
			h69.588c3.927,0,7.111,3.184,7.111,7.111v36.439C152.096,129.525,148.913,132.709,144.985,132.709z"/>
		<rect x="68.287" y="97.177" style="fill:#E9E5EA;" width="83.81" height="20.819"/>
		<circle style="fill:#FF6162;" cx="110.191" cy="107.586" r="20.458"/>
		<path style="fill:#FFFFFF;" d="M124.128,70.503H96.255c-1.718,0-3.123-1.405-3.123-3.123l0,0c0-1.718,1.406-3.123,3.123-3.123
			h27.873c1.718,0,3.123,1.405,3.123,3.123l0,0C127.251,69.098,125.846,70.503,124.128,70.503z"/>
		<polygon style="fill:#FFFFFF;" points="120.601,102.744 115.033,102.744 115.033,97.177 105.349,97.177 105.349,102.744 
			99.782,102.744 99.782,112.428 105.349,112.428 105.349,117.996 115.033,117.996 115.033,112.428 120.601,112.428 		"/>
		<rect x="76.394" y="132.709" style="fill:#3F4C5B;" width="5.712" height="1.844"/>
		<rect x="138.277" y="132.709" style="fill:#3F4C5B;" width="5.712" height="1.844"/>
	</g>
	<g>
		<path style="fill:#FFFFFF;" d="M94.516,227.522c-8.334,0-15.983-2.917-21.995-7.779c-6.012,4.862-13.661,7.779-21.995,7.779
			c-2.705,0-5.335-0.317-7.864-0.898c-0.228,2.093-0.35,4.214-0.35,6.362c0,21.732,11.963,40.91,30.208,52.394
			c18.245-11.484,30.208-30.662,30.208-52.394c0-2.148-0.121-4.269-0.349-6.362C99.851,227.205,97.221,227.522,94.516,227.522z"/>
		<path style="fill:#E9E5EA;" d="M72.521,227.364c-7.503,4.638-16.32,7-25.226,6.665c0.4,17.949,9.69,34.811,25.226,46.057
			c15.536-11.245,24.826-28.109,25.226-46.057C88.836,234.365,80.024,232.002,72.521,227.364z"/>
		<path style="fill:#8FCCCF;" d="M72.521,228.97c-7.009,4.355-15.245,6.573-23.564,6.259c0.374,16.856,9.052,32.692,23.564,43.252
			c14.512-10.561,23.19-26.397,23.564-43.252C87.761,235.544,79.53,233.325,72.521,228.97z"/>
		<polyline style="fill:none;stroke:#FFFFFF;stroke-linecap:round;stroke-linejoin:round;stroke-miterlimit:10;" points="
			56.218,251.883 61.757,251.883 65.937,241.641 71.581,263.483 77.746,244.254 79.418,251.36 88.824,251.36 		"/>
	</g>
</g>
<g id="DESIGNED_BY_FREEPIK">
	<g id="XMLID_76_">
		<g id="XMLID_929_">
			<path id="XMLID_958_" style="fill:#5A8185;" d="M181.087,472.134c-0.246,0-0.435,0.085-0.567,0.255
				c-0.133,0.17-0.199,0.421-0.199,0.753v2.393c-0.304-0.332-0.617-0.579-0.937-0.739c-0.321-0.159-0.715-0.24-1.182-0.24
				c-0.807,0-1.458,0.283-1.953,0.849c-0.494,0.566-0.742,1.355-0.742,2.369c0,0.479,0.063,0.923,0.188,1.335
				c0.124,0.412,0.307,0.77,0.549,1.074c0.241,0.305,0.526,0.539,0.857,0.703c0.33,0.164,0.689,0.246,1.078,0.246
				c0.293,0,0.563-0.04,0.809-0.122c0.247-0.08,0.477-0.199,0.689-0.356c0.212-0.155,0.426-0.358,0.644-0.607v0.16
				c0,0.297,0.072,0.525,0.217,0.685c0.145,0.16,0.328,0.24,0.549,0.24c0.226,0,0.409-0.077,0.552-0.231
				c0.143-0.154,0.213-0.386,0.213-0.694v-7.147c0-0.305-0.066-0.534-0.199-0.69C181.52,472.212,181.332,472.134,181.087,472.134z
				 M180.021,478.975c-0.141,0.306-0.329,0.533-0.563,0.682c-0.236,0.148-0.496,0.223-0.781,0.223c-0.28,0-0.539-0.078-0.777-0.236
				c-0.237-0.154-0.424-0.387-0.561-0.695c-0.136-0.31-0.205-0.683-0.205-1.122c0-0.415,0.063-0.78,0.193-1.096
				c0.128-0.314,0.31-0.556,0.543-0.724c0.233-0.168,0.499-0.252,0.795-0.252c0.285,0,0.547,0.082,0.787,0.245
				c0.239,0.165,0.429,0.402,0.569,0.713c0.141,0.311,0.21,0.682,0.21,1.113C180.232,478.283,180.163,478.667,180.021,478.975z"/>
			<path id="XMLID_954_" style="fill:#5A8185;" d="M188.452,478.054c0.233-0.122,0.35-0.385,0.35-0.793
				c0-0.438-0.113-0.87-0.338-1.294c-0.225-0.423-0.564-0.769-1.019-1.035c-0.453-0.268-0.996-0.399-1.628-0.399
				c-0.487,0-0.93,0.077-1.33,0.233c-0.4,0.156-0.737,0.381-1.01,0.674c-0.272,0.293-0.48,0.643-0.623,1.054
				c-0.143,0.409-0.213,0.853-0.213,1.332c0,1.017,0.289,1.822,0.867,2.415c0.577,0.593,1.387,0.891,2.427,0.891
				c0.456,0,0.858-0.06,1.207-0.178c0.352-0.12,0.641-0.268,0.874-0.448c0.231-0.181,0.404-0.368,0.519-0.565
				c0.115-0.196,0.172-0.366,0.172-0.514c0-0.166-0.052-0.294-0.155-0.386c-0.103-0.09-0.237-0.137-0.403-0.137
				c-0.154,0-0.273,0.036-0.356,0.107c-0.203,0.19-0.366,0.34-0.492,0.451s-0.265,0.216-0.415,0.313
				c-0.15,0.098-0.305,0.167-0.466,0.214c-0.16,0.044-0.337,0.067-0.531,0.067c-0.289,0-0.553-0.07-0.792-0.213
				c-0.239-0.143-0.432-0.355-0.576-0.636c-0.144-0.281-0.219-0.605-0.222-0.974h3.168
				C187.89,478.234,188.219,478.174,188.452,478.054z M184.297,477.315c0.055-0.547,0.212-0.96,0.472-1.238
				c0.259-0.28,0.59-0.418,0.994-0.418c0.423,0,0.764,0.137,1.024,0.411c0.259,0.275,0.409,0.69,0.448,1.245H184.297z"/>
			<path id="XMLID_952_" style="fill:#5A8185;" d="M193.878,477.617c-0.319-0.17-0.729-0.316-1.231-0.439
				c-0.424-0.104-0.756-0.19-0.997-0.261c-0.242-0.07-0.434-0.161-0.576-0.27c-0.143-0.108-0.213-0.247-0.213-0.418
				c0-0.186,0.097-0.342,0.291-0.465c0.194-0.126,0.437-0.188,0.73-0.188c0.286,0,0.511,0.047,0.677,0.142
				c0.166,0.096,0.31,0.223,0.433,0.381c0.151,0.189,0.284,0.331,0.401,0.426c0.116,0.096,0.258,0.144,0.424,0.144
				c0.23,0,0.407-0.061,0.532-0.178c0.124-0.119,0.187-0.271,0.187-0.457c0-0.171-0.058-0.345-0.175-0.523
				c-0.116-0.178-0.286-0.34-0.51-0.485c-0.223-0.147-0.502-0.265-0.837-0.351c-0.333-0.088-0.71-0.131-1.13-0.131
				c-0.535,0-0.99,0.085-1.367,0.259c-0.378,0.172-0.665,0.402-0.859,0.69c-0.194,0.289-0.291,0.597-0.291,0.92
				c0,0.364,0.105,0.671,0.315,0.921c0.21,0.249,0.489,0.45,0.839,0.602c0.351,0.152,0.804,0.298,1.362,0.435
				c0.494,0.12,0.849,0.244,1.066,0.375c0.216,0.131,0.323,0.338,0.323,0.622c0,0.187-0.104,0.352-0.311,0.497
				c-0.208,0.144-0.474,0.216-0.798,0.216c-0.4,0-0.715-0.07-0.947-0.213c-0.232-0.144-0.431-0.357-0.597-0.647
				c-0.082-0.149-0.169-0.267-0.261-0.351c-0.091-0.082-0.221-0.124-0.39-0.124c-0.194,0-0.355,0.064-0.481,0.19
				c-0.128,0.126-0.191,0.278-0.191,0.456c0,0.27,0.099,0.537,0.296,0.805c0.198,0.267,0.505,0.489,0.92,0.667
				c0.415,0.179,0.914,0.268,1.495,0.268c0.609,0,1.127-0.082,1.552-0.246c0.425-0.164,0.747-0.405,0.964-0.725
				c0.218-0.318,0.326-0.701,0.326-1.148c0-0.297-0.081-0.56-0.246-0.792C194.438,477.988,194.196,477.787,193.878,477.617z"/>
			<path id="XMLID_950_" style="fill:#5A8185;" d="M196.486,474.543c-0.238,0-0.431,0.081-0.579,0.243
				c-0.149,0.162-0.222,0.404-0.222,0.724v4.636c0,0.316,0.073,0.56,0.222,0.73c0.148,0.17,0.341,0.255,0.579,0.255
				c0.238,0,0.433-0.083,0.588-0.249c0.154-0.166,0.232-0.412,0.232-0.736v-4.683c0-0.288-0.078-0.515-0.232-0.677
				C196.919,474.624,196.724,474.543,196.486,474.543z"/>
			<path id="XMLID_949_" style="fill:#5A8185;" d="M196.504,472.204c-0.217,0-0.409,0.073-0.573,0.223
				c-0.165,0.149-0.246,0.337-0.246,0.567c0,0.254,0.08,0.449,0.24,0.588c0.16,0.138,0.353,0.208,0.579,0.208
				c0.217,0,0.405-0.071,0.563-0.212c0.158-0.14,0.238-0.335,0.238-0.584c0-0.258-0.081-0.453-0.244-0.588
				C196.9,472.272,196.714,472.204,196.504,472.204z"/>
			<path id="XMLID_945_" style="fill:#5A8185;" d="M203.626,474.543c-0.217,0-0.396,0.077-0.535,0.231
				c-0.139,0.154-0.208,0.372-0.208,0.652v0.221c-0.289-0.376-0.602-0.651-0.938-0.829c-0.337-0.175-0.734-0.264-1.193-0.264
				c-0.384,0-0.736,0.068-1.056,0.204c-0.321,0.138-0.604,0.34-0.849,0.609c-0.245,0.268-0.433,0.599-0.566,0.991
				c-0.133,0.392-0.199,0.831-0.199,1.317c0,0.653,0.108,1.228,0.327,1.728c0.217,0.498,0.529,0.886,0.934,1.163
				c0.406,0.276,0.88,0.415,1.422,0.415c0.45,0,0.839-0.091,1.166-0.272c0.327-0.182,0.614-0.447,0.864-0.797
				c-0.008,0.531-0.02,0.916-0.036,1.155c-0.016,0.24-0.07,0.465-0.164,0.674c-0.093,0.209-0.255,0.373-0.486,0.489
				c-0.232,0.117-0.557,0.176-0.977,0.176c-0.205,0-0.387-0.02-0.545-0.057c-0.159-0.038-0.294-0.095-0.406-0.171
				c-0.112-0.078-0.216-0.171-0.309-0.28c-0.093-0.108-0.183-0.217-0.27-0.323c-0.178-0.21-0.386-0.315-0.624-0.315
				c-0.189,0-0.352,0.062-0.486,0.188c-0.135,0.123-0.202,0.284-0.202,0.482c0,0.262,0.119,0.516,0.356,0.764
				c0.238,0.247,0.576,0.448,1.014,0.605c0.439,0.155,0.938,0.233,1.496,0.233c0.609,0,1.119-0.061,1.528-0.184
				c0.409-0.122,0.741-0.311,0.994-0.563c0.253-0.254,0.438-0.574,0.551-0.961c0.115-0.389,0.173-0.852,0.173-1.39v-4.706
				c0-0.384-0.051-0.678-0.155-0.882C204.146,474.646,203.938,474.543,203.626,474.543z M202.6,478.908
				c-0.151,0.291-0.346,0.508-0.586,0.653c-0.239,0.144-0.493,0.217-0.762,0.217c-0.455,0-0.826-0.168-1.113-0.505
				c-0.287-0.336-0.431-0.834-0.431-1.49c0-0.648,0.139-1.149,0.419-1.501c0.279-0.352,0.649-0.528,1.113-0.528
				c0.475,0,0.858,0.184,1.148,0.553c0.291,0.367,0.437,0.882,0.437,1.542C202.825,478.265,202.749,478.617,202.6,478.908z"/>
			<path id="XMLID_944_" style="fill:#5A8185;" d="M210.978,475.61c-0.165-0.339-0.418-0.602-0.753-0.788
				c-0.337-0.187-0.718-0.279-1.146-0.279c-0.439,0-0.828,0.088-1.166,0.264c-0.338,0.177-0.65,0.452-0.935,0.828v-0.195
				c0-0.193-0.034-0.358-0.104-0.493c-0.069-0.134-0.162-0.234-0.276-0.302c-0.114-0.068-0.244-0.102-0.387-0.102
				c-0.233,0-0.416,0.076-0.552,0.229c-0.134,0.152-0.201,0.383-0.201,0.691v4.683c0,0.316,0.076,0.56,0.226,0.73
				c0.15,0.17,0.342,0.255,0.576,0.255c0.241,0,0.438-0.082,0.59-0.246c0.152-0.164,0.228-0.411,0.228-0.739v-2.03
				c0-0.66,0.04-1.11,0.119-1.353c0.11-0.3,0.284-0.537,0.522-0.71c0.237-0.172,0.5-0.258,0.788-0.258
				c0.444,0,0.74,0.143,0.888,0.425c0.148,0.282,0.223,0.691,0.223,1.226v2.7c0,0.316,0.074,0.56,0.226,0.73
				c0.15,0.17,0.346,0.255,0.587,0.255c0.238,0,0.431-0.083,0.578-0.249c0.149-0.166,0.224-0.412,0.224-0.736v-3.016
				c0-0.357-0.017-0.648-0.048-0.878C211.155,476.023,211.085,475.809,210.978,475.61z"/>
			<path id="XMLID_939_" style="fill:#5A8185;" d="M217.821,478.054c0.233-0.122,0.35-0.385,0.35-0.793
				c0-0.438-0.113-0.87-0.338-1.294c-0.226-0.423-0.565-0.769-1.019-1.035c-0.453-0.268-0.996-0.399-1.628-0.399
				c-0.487,0-0.93,0.077-1.33,0.233c-0.4,0.156-0.736,0.381-1.009,0.674c-0.273,0.293-0.481,0.643-0.624,1.054
				c-0.142,0.409-0.213,0.853-0.213,1.332c0,1.017,0.289,1.822,0.866,2.415c0.578,0.593,1.387,0.891,2.428,0.891
				c0.455,0,0.858-0.06,1.208-0.178c0.351-0.12,0.64-0.268,0.872-0.448c0.232-0.181,0.405-0.368,0.52-0.565
				c0.114-0.196,0.172-0.366,0.172-0.514c0-0.166-0.051-0.294-0.154-0.386c-0.103-0.09-0.238-0.137-0.404-0.137
				c-0.154,0-0.273,0.036-0.356,0.107c-0.201,0.19-0.366,0.34-0.492,0.451c-0.128,0.111-0.266,0.216-0.415,0.313
				c-0.151,0.098-0.307,0.167-0.466,0.214c-0.161,0.044-0.338,0.067-0.532,0.067c-0.288,0-0.553-0.07-0.792-0.213
				c-0.239-0.143-0.431-0.355-0.575-0.636c-0.145-0.281-0.219-0.605-0.223-0.974h3.169
				C217.26,478.234,217.588,478.174,217.821,478.054z M213.666,477.315c0.056-0.547,0.212-0.96,0.471-1.238
				c0.259-0.28,0.591-0.418,0.995-0.418c0.423,0,0.765,0.137,1.024,0.411c0.259,0.275,0.409,0.69,0.448,1.245H213.666z"/>
			<path id="XMLID_936_" style="fill:#5A8185;" d="M224.206,472.134c-0.245,0-0.434,0.085-0.567,0.255
				c-0.132,0.17-0.199,0.421-0.199,0.753v2.393c-0.304-0.332-0.617-0.579-0.938-0.739c-0.32-0.159-0.714-0.24-1.181-0.24
				c-0.808,0-1.458,0.283-1.953,0.849c-0.495,0.566-0.741,1.355-0.741,2.369c0,0.479,0.062,0.923,0.187,1.335
				c0.125,0.412,0.308,0.77,0.549,1.074c0.241,0.305,0.527,0.539,0.857,0.703c0.33,0.164,0.689,0.246,1.077,0.246
				c0.293,0,0.563-0.04,0.81-0.122c0.248-0.08,0.476-0.199,0.689-0.356c0.211-0.155,0.426-0.358,0.643-0.607v0.16
				c0,0.297,0.072,0.525,0.217,0.685c0.145,0.16,0.328,0.24,0.549,0.24c0.226,0,0.41-0.077,0.552-0.231
				c0.143-0.154,0.213-0.386,0.213-0.694v-7.147c0-0.305-0.065-0.534-0.199-0.69C224.641,472.212,224.452,472.134,224.206,472.134z
				 M223.141,478.975c-0.14,0.306-0.328,0.533-0.564,0.682c-0.235,0.148-0.495,0.223-0.781,0.223c-0.281,0-0.54-0.078-0.776-0.236
				c-0.238-0.154-0.425-0.387-0.562-0.695c-0.137-0.31-0.205-0.683-0.205-1.122c0-0.415,0.064-0.78,0.193-1.096
				c0.129-0.314,0.31-0.556,0.543-0.724c0.233-0.168,0.499-0.252,0.795-0.252c0.285,0,0.547,0.082,0.787,0.245
				c0.239,0.165,0.43,0.402,0.57,0.713c0.14,0.311,0.21,0.682,0.21,1.113C223.352,478.283,223.281,478.667,223.141,478.975z"/>
			<path id="XMLID_933_" style="fill:#5A8185;" d="M233.586,474.938c-0.406-0.255-0.877-0.383-1.415-0.383
				c-0.467,0-0.859,0.084-1.175,0.252c-0.317,0.168-0.627,0.411-0.932,0.728v-2.476c0-0.297-0.068-0.524-0.202-0.686
				c-0.135-0.159-0.326-0.239-0.576-0.239c-0.237,0-0.423,0.084-0.555,0.252c-0.133,0.168-0.198,0.416-0.198,0.744v7.075
				c0,0.305,0.068,0.535,0.205,0.692c0.136,0.156,0.319,0.233,0.549,0.233c0.226,0,0.412-0.077,0.558-0.233
				c0.146-0.157,0.22-0.388,0.22-0.692v-0.16c0.178,0.205,0.322,0.36,0.43,0.463c0.109,0.103,0.241,0.203,0.395,0.3
				c0.154,0.098,0.341,0.175,0.561,0.234c0.22,0.06,0.454,0.089,0.704,0.089c0.407,0,0.781-0.082,1.119-0.246
				c0.338-0.164,0.626-0.397,0.864-0.698c0.237-0.3,0.418-0.655,0.543-1.064c0.124-0.41,0.187-0.859,0.187-1.35
				c0-0.665-0.112-1.241-0.336-1.725C234.305,475.564,233.991,475.193,233.586,474.938z M232.796,479.348
				c-0.295,0.354-0.646,0.531-1.053,0.531c-0.479,0-0.866-0.174-1.161-0.521c-0.295-0.346-0.442-0.841-0.442-1.486
				c0-0.44,0.069-0.818,0.207-1.136c0.138-0.319,0.328-0.563,0.57-0.73c0.24-0.168,0.516-0.252,0.825-0.252
				c0.3,0,0.563,0.084,0.789,0.252c0.225,0.168,0.399,0.406,0.521,0.716c0.123,0.308,0.184,0.677,0.184,1.103
				C233.238,478.486,233.09,478.993,232.796,479.348z"/>
			<path id="XMLID_931_" style="fill:#5A8185;" d="M240.529,474.641c-0.112-0.065-0.23-0.098-0.353-0.098
				c-0.171,0-0.302,0.029-0.395,0.09c-0.093,0.058-0.181,0.173-0.264,0.344c-0.083,0.17-0.176,0.406-0.279,0.705l-1.3,3.71
				l-1.371-3.988c-0.091-0.277-0.195-0.489-0.314-0.638c-0.119-0.148-0.295-0.223-0.529-0.223c-0.135,0-0.264,0.035-0.389,0.107
				c-0.124,0.07-0.222,0.166-0.294,0.285c-0.071,0.117-0.107,0.246-0.107,0.385c0,0.131,0.062,0.341,0.184,0.629l1.995,5.022
				l-0.148,0.362c-0.111,0.265-0.208,0.466-0.294,0.601c-0.085,0.139-0.181,0.234-0.288,0.289c-0.107,0.056-0.254,0.084-0.44,0.084
				c-0.075,0-0.163-0.013-0.266-0.036c-0.083-0.024-0.168-0.036-0.256-0.036c-0.221,0-0.388,0.051-0.501,0.151
				c-0.113,0.101-0.169,0.245-0.169,0.431c0,0.272,0.119,0.461,0.356,0.564c0.237,0.103,0.593,0.153,1.068,0.153
				c0.487,0,0.873-0.073,1.161-0.223c0.287-0.147,0.517-0.361,0.691-0.638c0.174-0.277,0.353-0.659,0.535-1.146l2.113-5.531
				c0.051-0.143,0.095-0.283,0.13-0.421c0.037-0.14,0.061-0.246,0.078-0.321c0-0.123-0.032-0.239-0.093-0.35
				C240.729,474.794,240.642,474.706,240.529,474.641z"/>
		</g>
		<g id="XMLID_365_">
			<g id="XMLID_380_">
				<path id="XMLID_928_" style="fill:#5A8185;" d="M262.93,472.129c-0.533,0-0.954,0.068-1.26,0.204
					c-0.308,0.137-0.527,0.354-0.654,0.652c-0.13,0.301-0.191,0.702-0.191,1.211v0.487h-0.387c-0.543,0-0.815,0.191-0.815,0.582
					c0,0.174,0.065,0.315,0.196,0.423c0.132,0.111,0.316,0.164,0.559,0.164h0.446v4.294c0,0.318,0.074,0.563,0.228,0.729
					c0.154,0.17,0.344,0.254,0.573,0.254c0.243,0,0.438-0.084,0.589-0.254c0.155-0.167,0.23-0.411,0.23-0.729v-4.294h0.396
					c0.291,0,0.517-0.035,0.681-0.107c0.166-0.071,0.245-0.24,0.245-0.503c0-0.373-0.307-0.559-0.926-0.559h-0.396v-0.387
					c0-0.321,0.043-0.567,0.122-0.739c0.087-0.172,0.273-0.26,0.565-0.26c0.108,0,0.241,0.014,0.39,0.034
					c0.155,0.026,0.268,0.038,0.33,0.038c0.134,0,0.252-0.055,0.348-0.16c0.102-0.107,0.15-0.235,0.15-0.385
					C264.35,472.358,263.879,472.129,262.93,472.129z"/>
				<path id="XMLID_926_" style="fill:#5A8185;" d="M268.089,474.795c-0.32-0.171-0.648-0.255-0.99-0.255
					c-0.342,0-0.61,0.084-0.818,0.255c-0.202,0.171-0.4,0.421-0.592,0.755c-0.015-0.334-0.08-0.584-0.199-0.755
					c-0.119-0.171-0.313-0.255-0.583-0.255c-0.525,0-0.788,0.364-0.788,1.093v4.514c0,0.323,0.078,0.568,0.226,0.732
					c0.149,0.169,0.34,0.251,0.579,0.251c0.236,0,0.432-0.081,0.586-0.247c0.15-0.163,0.233-0.41,0.233-0.736v-1.356
					c0-0.486,0.014-0.899,0.045-1.238c0.033-0.337,0.09-0.631,0.17-0.878c0.084-0.243,0.201-0.425,0.353-0.554
					c0.149-0.122,0.345-0.186,0.582-0.186c0.172,0,0.374,0.036,0.602,0.108c0.227,0.073,0.371,0.112,0.434,0.112
					c0.157,0,0.304-0.064,0.44-0.194c0.135-0.126,0.204-0.292,0.204-0.488C268.571,475.192,268.411,474.966,268.089,474.795z"/>
				<path id="XMLID_922_" style="fill:#5A8185;" d="M274.176,478.052c0.233-0.122,0.351-0.385,0.351-0.791
					c0-0.44-0.112-0.87-0.339-1.296c-0.222-0.423-0.565-0.77-1.018-1.033c-0.453-0.27-0.997-0.403-1.629-0.403
					c-0.488,0-0.931,0.078-1.329,0.232c-0.402,0.157-0.735,0.381-1.008,0.675c-0.275,0.295-0.484,0.644-0.624,1.055
					c-0.145,0.41-0.218,0.854-0.218,1.333c0,1.017,0.293,1.823,0.87,2.418c0.576,0.593,1.385,0.889,2.429,0.889
					c0.453,0,0.857-0.061,1.207-0.179c0.349-0.117,0.64-0.269,0.874-0.446c0.232-0.182,0.404-0.368,0.522-0.566
					c0.111-0.194,0.167-0.365,0.167-0.512c0-0.167-0.048-0.294-0.152-0.386c-0.104-0.093-0.237-0.139-0.405-0.139
					c-0.152,0-0.271,0.038-0.355,0.108c-0.202,0.189-0.367,0.34-0.493,0.449c-0.128,0.113-0.264,0.218-0.415,0.313
					c-0.15,0.097-0.307,0.17-0.466,0.213c-0.16,0.048-0.336,0.069-0.531,0.069c-0.29,0-0.552-0.07-0.792-0.212
					c-0.24-0.145-0.431-0.357-0.578-0.636c-0.145-0.28-0.216-0.606-0.222-0.974h3.171
					C273.615,478.233,273.942,478.173,274.176,478.052z M270.02,477.313c0.055-0.546,0.213-0.957,0.472-1.236
					c0.26-0.28,0.592-0.418,0.995-0.418c0.426,0,0.764,0.136,1.024,0.412c0.261,0.273,0.407,0.688,0.446,1.242H270.02z"/>
				<path id="XMLID_919_" style="fill:#5A8185;" d="M280.916,478.052c0.232-0.122,0.352-0.385,0.352-0.791
					c0-0.44-0.116-0.87-0.341-1.296c-0.222-0.423-0.564-0.77-1.013-1.033c-0.46-0.27-1.003-0.403-1.634-0.403
					c-0.486,0-0.932,0.078-1.33,0.232c-0.4,0.157-0.736,0.381-1.009,0.675c-0.273,0.295-0.48,0.644-0.622,1.055
					c-0.145,0.41-0.218,0.854-0.218,1.333c0,1.017,0.291,1.823,0.868,2.418c0.58,0.593,1.387,0.889,2.43,0.889
					c0.453,0,0.859-0.061,1.208-0.179c0.348-0.117,0.641-0.269,0.872-0.446c0.234-0.182,0.408-0.368,0.518-0.566
					c0.116-0.194,0.171-0.365,0.171-0.512c0-0.167-0.047-0.294-0.15-0.386c-0.104-0.093-0.238-0.139-0.406-0.139
					c-0.151,0-0.27,0.038-0.355,0.108c-0.202,0.189-0.367,0.34-0.492,0.449c-0.127,0.113-0.264,0.218-0.415,0.313
					c-0.152,0.097-0.307,0.17-0.469,0.213c-0.157,0.048-0.335,0.069-0.527,0.069c-0.291,0-0.556-0.07-0.795-0.212
					c-0.238-0.145-0.431-0.357-0.575-0.636c-0.144-0.28-0.218-0.606-0.222-0.974h3.17
					C280.354,478.233,280.682,478.173,280.916,478.052z M276.762,477.313c0.053-0.546,0.211-0.957,0.47-1.236
					c0.261-0.28,0.592-0.418,0.995-0.418c0.425,0,0.764,0.136,1.026,0.412c0.257,0.273,0.407,0.688,0.446,1.242H276.762z"/>
				<path id="XMLID_390_" style="fill:#5A8185;" d="M286.927,474.938c-0.42-0.257-0.883-0.387-1.379-0.387
					c-0.415,0-0.79,0.09-1.114,0.268c-0.331,0.176-0.648,0.452-0.952,0.827v-0.194c0-0.297-0.071-0.52-0.218-0.678
					c-0.144-0.155-0.329-0.233-0.56-0.233c-0.233,0-0.419,0.078-0.554,0.228c-0.133,0.154-0.199,0.382-0.199,0.691v6.995
					c0,0.354,0.051,0.62,0.145,0.807c0.102,0.183,0.301,0.274,0.607,0.274c0.517,0,0.777-0.358,0.777-1.068v-2.434
					c0.286,0.358,0.586,0.635,0.9,0.817c0.314,0.187,0.704,0.279,1.166,0.279c0.385,0,0.741-0.076,1.079-0.228
					c0.334-0.152,0.622-0.372,0.868-0.653c0.245-0.283,0.44-0.632,0.58-1.05c0.14-0.418,0.21-0.878,0.21-1.376
					c0-0.677-0.122-1.261-0.366-1.758C287.676,475.571,287.346,475.195,286.927,474.938z M286.45,478.94
					c-0.137,0.313-0.32,0.546-0.552,0.704c-0.229,0.153-0.48,0.233-0.748,0.233c-0.454,0-0.828-0.179-1.133-0.536
					c-0.307-0.358-0.46-0.862-0.46-1.504c0-0.687,0.155-1.204,0.462-1.558c0.307-0.35,0.685-0.527,1.131-0.527
					c0.281,0,0.54,0.083,0.77,0.247c0.229,0.163,0.411,0.398,0.542,0.705c0.13,0.306,0.196,0.674,0.196,1.101
					C286.658,478.248,286.589,478.627,286.45,478.94z"/>
				<path id="XMLID_389_" style="fill:#5A8185;" d="M289.9,474.54c-0.238,0-0.428,0.079-0.58,0.244
					c-0.146,0.163-0.222,0.403-0.222,0.722v4.642c0,0.313,0.076,0.555,0.222,0.729c0.152,0.17,0.342,0.254,0.58,0.254
					s0.432-0.082,0.588-0.251c0.154-0.164,0.231-0.409,0.231-0.731v-4.688c0-0.286-0.077-0.512-0.231-0.675
					C290.332,474.619,290.139,474.54,289.9,474.54z"/>
				<path id="XMLID_388_" style="fill:#5A8185;" d="M289.917,472.199c-0.217,0-0.407,0.076-0.571,0.223
					c-0.166,0.149-0.247,0.339-0.247,0.568c0,0.253,0.08,0.447,0.242,0.586c0.158,0.138,0.35,0.209,0.576,0.209
					c0.22,0,0.408-0.071,0.566-0.21c0.157-0.14,0.236-0.335,0.236-0.585c0-0.257-0.082-0.454-0.244-0.591
					C290.314,472.267,290.13,472.199,289.917,472.199z"/>
				<path id="XMLID_387_" style="fill:#5A8185;" d="M297.258,479.569l-1.662-2.614l0.861-0.788c0.438-0.395,0.658-0.714,0.658-0.951
					c0-0.192-0.068-0.354-0.2-0.483c-0.138-0.128-0.306-0.192-0.509-0.192c-0.169,0-0.313,0.043-0.432,0.13
					c-0.121,0.086-0.29,0.251-0.517,0.486l-1.822,1.913v-3.933c0-0.329-0.074-0.581-0.221-0.751
					c-0.147-0.171-0.344-0.257-0.593-0.257c-0.256,0-0.457,0.093-0.596,0.283c-0.136,0.188-0.207,0.462-0.207,0.82v6.914
					c0,0.323,0.073,0.568,0.215,0.732c0.141,0.169,0.339,0.251,0.588,0.251c0.213,0,0.405-0.084,0.566-0.254
					c0.164-0.167,0.247-0.406,0.247-0.719v-1.29l0.88-0.83l1.428,2.352c0.182,0.278,0.329,0.472,0.435,0.58
					c0.107,0.109,0.261,0.16,0.459,0.16c0.226,0,0.412-0.073,0.553-0.222c0.142-0.15,0.214-0.351,0.214-0.609
					c0-0.089-0.029-0.189-0.082-0.288C297.47,479.909,297.379,479.765,297.258,479.569z"/>
				<path id="XMLID_386_" style="fill:#5A8185;" d="M299.45,479.343c-0.251,0-0.459,0.087-0.63,0.262
					c-0.171,0.173-0.257,0.381-0.257,0.622c0,0.287,0.091,0.51,0.269,0.665c0.179,0.159,0.389,0.238,0.633,0.238
					c0.237,0,0.444-0.079,0.624-0.241c0.175-0.157,0.264-0.38,0.264-0.662c0-0.243-0.089-0.454-0.264-0.626
					C299.909,479.43,299.698,479.343,299.45,479.343z"/>
				<path id="XMLID_385_" style="fill:#5A8185;" d="M306.835,478.416c-0.166,0-0.308,0.055-0.422,0.156
					c-0.113,0.104-0.219,0.245-0.318,0.427c-0.177,0.31-0.381,0.538-0.616,0.69c-0.23,0.149-0.509,0.225-0.834,0.225
					c-0.24,0-0.463-0.045-0.666-0.141c-0.201-0.094-0.372-0.229-0.516-0.409c-0.144-0.18-0.252-0.398-0.325-0.652
					c-0.075-0.256-0.114-0.537-0.114-0.842c0-0.646,0.147-1.161,0.44-1.533c0.293-0.375,0.682-0.561,1.158-0.561
					c0.333,0,0.606,0.075,0.82,0.227c0.219,0.147,0.425,0.376,0.623,0.674c0.108,0.158,0.209,0.27,0.299,0.339
					c0.09,0.069,0.201,0.104,0.338,0.104c0.202,0,0.377-0.068,0.524-0.203c0.143-0.135,0.214-0.3,0.214-0.491
					c0-0.192-0.062-0.397-0.192-0.617c-0.127-0.218-0.315-0.424-0.556-0.62c-0.245-0.192-0.54-0.352-0.891-0.474
					c-0.353-0.124-0.736-0.185-1.156-0.185c-0.674,0-1.26,0.139-1.747,0.419c-0.485,0.278-0.858,0.673-1.113,1.183
					c-0.259,0.511-0.387,1.098-0.387,1.765c0,0.982,0.281,1.765,0.841,2.35c0.563,0.582,1.345,0.876,2.349,0.876
					c0.469,0,0.894-0.065,1.269-0.191c0.377-0.126,0.688-0.295,0.935-0.503c0.248-0.207,0.434-0.425,0.553-0.655
					c0.122-0.23,0.183-0.446,0.183-0.647c0-0.169-0.066-0.331-0.198-0.481C307.198,478.493,307.033,478.416,306.835,478.416z"/>
				<path id="XMLID_382_" style="fill:#5A8185;" d="M313.646,475.453c-0.288-0.291-0.628-0.518-1.026-0.675
					c-0.4-0.16-0.847-0.238-1.336-0.238c-0.482,0-0.924,0.078-1.326,0.233c-0.398,0.158-0.737,0.38-1.02,0.669
					c-0.281,0.288-0.498,0.637-0.648,1.045c-0.146,0.408-0.225,0.857-0.225,1.349c0,0.485,0.076,0.93,0.22,1.332
					c0.151,0.401,0.369,0.75,0.657,1.048c0.284,0.292,0.626,0.521,1.016,0.676c0.393,0.159,0.835,0.239,1.326,0.239
					c0.492,0,0.937-0.08,1.336-0.234c0.394-0.157,0.735-0.382,1.02-0.675c0.286-0.291,0.502-0.642,0.656-1.05
					c0.145-0.408,0.222-0.854,0.222-1.336c0-0.488-0.075-0.932-0.221-1.339C314.148,476.096,313.933,475.749,313.646,475.453z
					 M312.455,479.368c-0.29,0.373-0.682,0.558-1.171,0.558c-0.324,0-0.604-0.086-0.846-0.253c-0.24-0.168-0.424-0.409-0.554-0.729
					c-0.129-0.316-0.193-0.685-0.193-1.108c0-0.428,0.066-0.803,0.197-1.124c0.13-0.321,0.314-0.564,0.556-0.728
					c0.242-0.163,0.522-0.245,0.84-0.245c0.489,0,0.881,0.182,1.171,0.555c0.289,0.367,0.436,0.881,0.436,1.542
					C312.891,478.486,312.744,478.999,312.455,479.368z"/>
				<path id="XMLID_381_" style="fill:#5A8185;" d="M323.569,474.814c-0.32-0.173-0.705-0.263-1.146-0.263
					c-0.38,0-0.726,0.081-1.038,0.241c-0.314,0.161-0.607,0.408-0.882,0.738c-0.191-0.326-0.431-0.572-0.725-0.735
					c-0.292-0.162-0.642-0.244-1.048-0.244c-0.395,0-0.748,0.079-1.07,0.241c-0.319,0.156-0.62,0.403-0.903,0.738v-0.153
					c0-0.261-0.073-0.466-0.221-0.616c-0.15-0.145-0.335-0.221-0.558-0.221c-0.226,0-0.412,0.078-0.556,0.238
					c-0.14,0.157-0.21,0.389-0.21,0.694v4.636c0,0.337,0.078,0.592,0.235,0.765c0.156,0.171,0.358,0.258,0.604,0.258
					c0.248,0,0.447-0.087,0.603-0.258c0.149-0.173,0.227-0.428,0.227-0.765v-2.189c0-0.683,0.086-1.206,0.253-1.566
					c0.169-0.369,0.517-0.55,1.048-0.55c0.264,0,0.459,0.071,0.582,0.22c0.121,0.142,0.197,0.33,0.226,0.552
					c0.027,0.226,0.04,0.544,0.04,0.952v2.581c0,0.342,0.078,0.594,0.232,0.768c0.148,0.17,0.35,0.255,0.595,0.255
					c0.254,0,0.454-0.085,0.61-0.255c0.156-0.174,0.23-0.426,0.23-0.768v-2.153c0-0.694,0.063-1.178,0.178-1.452
					c0.109-0.209,0.259-0.383,0.451-0.508c0.191-0.125,0.395-0.191,0.608-0.191c0.264,0,0.463,0.071,0.596,0.215
					c0.128,0.142,0.209,0.318,0.238,0.528c0.029,0.21,0.044,0.486,0.044,0.837v2.725c0,0.337,0.078,0.592,0.234,0.765
					c0.157,0.171,0.356,0.258,0.604,0.258c0.252,0,0.458-0.085,0.611-0.255c0.154-0.174,0.229-0.426,0.229-0.768v-3.163
					c0-0.629-0.068-1.091-0.206-1.386C324.128,475.237,323.889,474.987,323.569,474.814z"/>
			</g>
			<g id="XMLID_366_">
				<path id="XMLID_379_" style="fill:#5A8185;" d="M245.273,477.443c-0.001-0.003-0.001-0.006-0.001-0.011
					C245.272,477.438,245.272,477.44,245.273,477.443z"/>
				<path id="XMLID_378_" style="fill:#5A8185;" d="M245.355,477.961c0.001,0,0.001,0,0.001,0c-0.03-0.146-0.055-0.294-0.073-0.438
					C245.301,477.669,245.326,477.816,245.355,477.961z"/>
				<path id="XMLID_377_" style="fill:#5A8185;" d="M245.891,479.466c-0.003-0.007-0.006-0.014-0.01-0.021
					C245.885,479.452,245.888,479.459,245.891,479.466z"/>
				<path id="XMLID_376_" style="fill:#5A8185;" d="M245.84,479.365c-0.014-0.027-0.027-0.056-0.04-0.083
					C245.812,479.311,245.826,479.338,245.84,479.365z"/>
				<path id="XMLID_375_" style="fill:#5A8185;" d="M245.505,478.541c0.08,0.25,0.175,0.492,0.286,0.724
					c-0.113-0.236-0.206-0.478-0.284-0.724H245.505z"/>
				<path id="XMLID_374_" style="fill:#5A8185;" d="M250.736,470.682l-0.076-0.26c0.299-0.063,0.523-0.329,0.523-0.647
					c0-0.363-0.296-0.659-0.66-0.659c-0.365,0-0.66,0.296-0.66,0.659c0,0.317,0.225,0.584,0.522,0.647l0.084,0.289
					c-1.021,0.141-1.834,0.539-1.834,0.539l0.144,0.44c0.617-0.206,1.153-0.331,1.64-0.383c0.476-0.051,0.833-0.073,1.126-0.073
					c0.313,0,0.545,0.025,0.81,0.069l0.075-0.476C252.43,470.828,251.697,470.603,250.736,470.682z"/>
				<path id="XMLID_373_" style="fill:#5A8185;" d="M245.453,473.189c-0.017,0.023-0.497,0.465-0.876,1.279
					c-0.016-0.025-0.035-0.051-0.056-0.074c-0.114-0.124-0.272-0.188-0.474-0.184c-0.003,0-0.006,0-0.01,0
					c-0.124,0-0.21-0.042-0.266-0.093c0.056-0.07,0.089-0.16,0.089-0.258c0-0.23-0.188-0.419-0.419-0.419
					c-0.23,0-0.417,0.189-0.417,0.419c0,0.231,0.188,0.417,0.417,0.417c0.037,0,0.071-0.005,0.105-0.012
					c0.102,0.113,0.266,0.214,0.504,0.209c0.124-0.002,0.214,0.03,0.273,0.097c0.07,0.075,0.093,0.185,0.1,0.267
					c-0.001,0.002-0.001,0.004-0.002,0.004c-0.272,0.743-0.194,1.668-0.194,1.668l0.661,0.025c0.014-0.336,0.061-0.925,0.232-1.393
					c0.329-0.906,0.741-1.472,0.757-1.496l0.004-0.005c0.024-0.031,0.047-0.06,0.071-0.089l-0.196-0.142L245.453,473.189z"/>
				<path id="XMLID_372_" style="fill:#5A8185;" d="M257.294,471.787c-0.23,0-0.419,0.186-0.419,0.417
					c0,0.037,0.006,0.071,0.016,0.104c-0.115,0.104-0.215,0.267-0.211,0.506c0.002,0.123-0.03,0.213-0.097,0.273
					c-0.053,0.047-0.119,0.071-0.185,0.087c-0.492-0.689-1.098-1.109-1.098-1.109l-0.474,0.509c0.358,0.326,0.725,0.734,1.08,1.244
					c0.246,0.352,0.499,0.806,0.71,1.258l0.64-0.304c0,0-0.292-0.722-0.703-1.369c0.071-0.025,0.143-0.063,0.206-0.12
					c0.126-0.113,0.188-0.272,0.184-0.474c-0.001-0.13,0.041-0.218,0.093-0.275c0.071,0.054,0.16,0.089,0.258,0.089
					c0.232,0,0.418-0.188,0.418-0.419C257.712,471.974,257.525,471.787,257.294,471.787z"/>
				<path id="XMLID_371_" style="fill:#5A8185;" d="M255.633,477.537c-0.88,0.429-2.33,0.996-4.236,1.262
					c-0.749,0.104-1.475,0.143-2.143,0.143c-0.869,0-1.638-0.064-2.227-0.14c-0.672-0.084-1.198-0.188-1.52-0.261
					c0.078,0.245,0.171,0.487,0.284,0.724c0.002,0.006,0.005,0.013,0.008,0.018c0.013,0.027,0.027,0.056,0.04,0.083
					c0.014,0.027,0.027,0.055,0.041,0.079c0.004,0.008,0.007,0.015,0.01,0.021c0.19,0.357,0.417,0.684,0.676,0.968
					c0.899,0.984,1.816,1.139,1.825,1.141l0.015,0.002l0.013,0.005c0.009,0.003,0.821,0.265,2.057,0.265
					c1.215,0,2.409-0.244,3.545-0.729c0.842-0.431,1.639-1.085,2.033-1.668c0.306-0.452,0.526-0.934,0.656-1.434
					c0.069-0.266,0.124-0.692,0.092-1.141C256.555,477.042,256.163,477.279,255.633,477.537z"/>
				<path id="XMLID_367_" style="fill:#5A8185;" d="M252.322,471.655c-0.265-0.044-0.477-0.068-0.777-0.068
					c-0.279,0-0.626,0.022-1.088,0.07c-0.465,0.049-0.982,0.171-1.583,0.373c-0.842,0.282-1.604,0.725-2.204,1.28l-0.02,0.019
					c-0.089,0.081-0.275,0.254-0.488,0.525c-0.025,0.037-0.408,0.578-0.709,1.408c-0.226,0.621-0.216,1.526-0.216,1.537v0.001
					c0,0.212,0.013,0.423,0.036,0.632c0,0.005,0,0.008,0.001,0.011c0.003,0.027,0.007,0.053,0.01,0.08
					c0.019,0.144,0.043,0.291,0.074,0.438c0.438,0.112,3.048,0.721,5.967,0.314c1.829-0.254,3.218-0.795,4.061-1.204
					c0.701-0.34,1.151-0.647,1.325-0.773c-0.173-0.643-0.651-1.65-1.089-2.278C254.367,472.228,253.016,471.77,252.322,471.655z
					 M248.679,476.914c-0.972,0-1.759-0.787-1.759-1.76c0-0.972,0.788-1.76,1.759-1.76c0.973,0,1.761,0.788,1.761,1.76
					C250.439,476.127,249.651,476.914,248.679,476.914z M253.828,475.617c-0.601,0-1.088-0.489-1.088-1.09
					c0-0.603,0.487-1.09,1.088-1.09s1.09,0.487,1.09,1.09C254.918,475.128,254.429,475.617,253.828,475.617z"/>
			</g>
		</g>
	</g>
</g>
</svg>
